<svg width="128" height="128" viewBox="0 0 128 128" fill="none" xmlns="http://www.w3.org/2000/svg">
<rect width="128" height="128" rx="64" fill="#0A0A0A"/>
<g clip-path="url(#clip0_97_13)">
<path d="M36.2222 94C42.9724 94 48.4444 88.528 48.4444 81.7778C48.4444 75.0276 42.9724 69.5556 36.2222 69.5556C29.4721 69.5556 24 75.0276 24 81.7778C24 88.528 29.4721 94 36.2222 94Z" fill="#F0F0F0"/>
<path d="M102 34H61.5556C60.451 34 59.5556 34.8954 59.5556 36V49.7778C59.5556 50.8823 60.451 51.7778 61.5556 51.7778H102C103.105 51.7778 104 50.8823 104 49.7778V36C104 34.8954 103.105 34 102 34Z" fill="#F0F0F0"/>
</g>
<defs>
<clipPath id="clip0_97_13">
<rect width="80" height="60" fill="white" transform="translate(24 34)"/>
</clipPath>
</defs>
</svg>
