<svg xmlns="http://www.w3.org/2000/svg" width="169" height="44" viewBox="0 0 169 44" fill="none">
    <path
        d="M63.2528 21.6692H54.1619V26.9141H62.3709V31.5926H54.1619V40.7341H49V16.8569H63.2528V21.6692Z"
        fill="black" />
    <path
        d="M84.4663 31.4589C84.4663 31.9589 84.4326 32.4474 84.3666 32.9239H70.4298C70.6409 34.1784 71.1433 35.1409 71.9372 35.8129C72.731 36.4849 73.732 36.8204 74.9429 36.8204C75.7976 36.8204 76.5668 36.6314 77.2493 36.2544C77.9317 35.8779 78.4627 35.3559 78.8395 34.6889H84.0674C83.4018 36.6989 82.2467 38.2944 80.6046 39.4764C78.9612 40.6589 77.0744 41.2494 74.9429 41.2494C73.1558 41.2494 71.5318 40.8244 70.0724 39.9749C68.6129 39.1254 67.4668 37.9574 66.6341 36.4694C65.8014 34.9829 65.3857 33.3344 65.3857 31.524C65.3857 29.703 65.7989 28.0495 66.6264 26.5615C67.4539 25.0735 68.5961 23.908 70.0568 23.065C71.5163 22.222 73.1454 21.7998 74.9442 21.7998C76.7869 21.7998 78.4407 22.2349 79.9066 23.1065C81.3712 23.978 82.4979 25.146 83.2866 26.611C84.0713 28.0795 84.4663 29.6939 84.4663 31.4589ZM74.9416 26.0475C73.8421 26.0475 72.9097 26.353 72.1444 26.963C71.379 27.573 70.8507 28.4275 70.5619 29.5269H79.487C79.1425 28.4055 78.5792 27.5454 77.797 26.946C77.0149 26.348 76.063 26.0475 74.9416 26.0475Z"
        fill="#ED7534" />
    <path
        d="M96.8866 22.2183H98.5196V26.9142H96.3712C94.9726 26.9142 93.9703 27.2442 93.3655 27.9047C92.7608 28.5652 92.4577 29.6502 92.4577 31.1602V40.7341H87.4797V22.318H91.5422V24.5832C92.8074 23.0072 94.5893 22.2183 96.8866 22.2183Z"
        fill="black" />
    <path
        d="M110.94 22.2183H112.571V26.9142H110.423C109.024 26.9142 108.022 27.2442 107.417 27.9047C106.812 28.5652 106.509 29.6502 106.509 31.1602V40.7341H101.531V22.318H105.594V24.5832C106.86 23.0072 108.642 22.2183 110.94 22.2183Z"
        fill="black" />
    <path
        d="M129.823 22.2855H133.736V40.7015H129.823V39.053C128.147 40.519 125.726 41.2505 123.429 41.2505C121.608 41.2505 119.96 40.8285 118.484 39.9855C117.007 39.1425 115.852 37.9745 115.021 36.4815C114.188 34.988 113.772 33.3255 113.772 31.494C113.772 29.6735 114.189 28.0225 115.021 26.541C115.853 25.0595 117.007 23.899 118.484 23.061C119.96 22.2233 121.608 21.8037 123.429 21.8037C125.771 21.8037 128.135 22.5535 129.823 24.052V22.2855ZM120.24 35.097C121.189 36.058 122.385 36.537 123.828 36.537C125.271 36.537 126.467 36.0605 127.416 35.1045C128.366 34.15 128.84 32.946 128.84 31.4915C128.84 30.0375 128.366 28.833 127.416 27.8785C126.467 26.924 125.271 26.4465 123.828 26.4465C122.385 26.4465 121.189 26.9265 120.24 27.8865C119.29 28.846 118.816 30.049 118.816 31.4915C118.816 32.9355 119.29 34.1375 120.24 35.097Z"
        fill="black" />
    <path
        d="M146.204 22.2183H147.836V26.9142H145.688C144.289 26.9142 143.287 27.2442 142.682 27.9047C142.077 28.5652 141.774 29.6502 141.774 31.1602V40.7341H136.796V22.318H140.859V24.5832C142.125 23.0072 143.907 22.2183 146.204 22.2183Z"
        fill="black" />
    <path
        d="M165.086 22.2855H169V40.7015H165.086V39.053C163.411 40.519 160.99 41.2505 158.693 41.2505C156.872 41.2505 155.224 40.8285 153.747 39.9855C152.271 39.1425 151.116 37.9745 150.284 36.4815C149.452 34.988 149.036 33.3255 149.036 31.494C149.036 29.6735 149.453 28.0225 150.284 26.541C151.117 25.0595 152.271 23.899 153.747 23.061C155.224 22.2233 156.872 21.8037 158.693 21.8037C161.034 21.8037 163.399 22.5535 165.086 24.052V22.2855ZM155.503 35.097C156.453 36.058 157.649 36.537 159.092 36.537C160.534 36.537 161.731 36.0605 162.68 35.1045C163.629 34.15 164.103 32.946 164.103 31.4915C164.103 30.0375 163.629 28.833 162.68 27.8785C161.731 26.924 160.534 26.4465 159.092 26.4465C157.649 26.4465 156.453 26.9265 155.503 27.8865C154.554 28.846 154.08 30.049 154.08 31.4915C154.08 32.9355 154.554 34.1375 155.503 35.097Z"
        fill="black" />
    <path d="M22.9515 17.6756L0 14.2607L12.1989 23.1742L8.85649 43.4513L22.9515 17.6756Z"
        fill="#ED7534" />
    <path
        d="M45.553 14.2605L29.9105 17.3478L24.28 0L28.6805 31.2509L19.881 29.9702L38.3815 43.4512L32.611 25.6708L45.553 14.2605Z"
        fill="#ED7534" />
    <script xmlns="" />
</svg>