<svg xmlns="http://www.w3.org/2000/svg" width="150" height="129" fill="none" viewBox="0 0 150 129">
    <g clip-path="url(#clip0_39_214)">
        <path fill="#000"
            d="M70.406 0.890828C70.2451 1.29308 69.9239 1.81602 69.8837 2.29872C69.763 2.74174 70.2739 3.68765 70.5273 3.8675C70.9296 4.22953 71.2916 4.87313 71.2916 5.27538C71.2916 5.67764 70.648 6.80394 69.8837 7.80958C69.1194 8.85543 68.4758 9.86107 68.4758 10.1024C68.4758 10.3438 67.8322 11.5103 67.0277 12.7171L65.5796 14.8892L64.4935 15.1306C62.8845 15.4524 62.2409 15.8949 62.1202 16.8603L62.434 17.4315L63.4074 17.705L64.8394 17.5126L65.7405 16.6994C66.2232 16.1362 66.8266 15.6937 67.1082 15.6937C67.6713 15.6937 69.6021 13.8836 70.5273 12.4757L71.1307 11.5505L71.5732 11.7919C71.8145 11.9528 72.2168 12.9584 72.4983 14.0043L72.9408 15.9351L72.5386 18.4693L72.1363 21.0035L69.4412 23.4572C67.9529 24.8249 66.3439 26.1925 65.8209 26.4741C65.298 26.7557 64.6544 27.3591 64.4131 27.8015L63.9706 28.6463L64.3728 29.0485L64.7751 29.4508L66.0623 29.0083C66.7863 28.7669 67.9127 28.1233 68.5965 27.5602C69.3205 26.9568 70.8089 25.911 71.895 25.1869L73.9062 23.8997L75.8773 21.0035L77.8483 18.1073L79.055 18.8715C80.302 19.676 80.825 20.4403 83.0776 25.2271L84.4452 28.1233L84.3165 29.4669L85.2617 30.5781L83.3994 29.9737C81.926 29.4669 75.9979 28.1636 74.7912 28.1636C74.0671 28.2038 70.6077 28.9681 67.0679 29.8933L60.6319 31.5827L60.5112 38.7428L60.4308 45.8627H59.8274H59.2642L59.1435 42.3631L59.0229 38.8635L52.9891 37.3349C49.6906 36.5304 46.4324 35.8064 45.7888 35.8064C44.4211 35.8064 32.8262 39.125 31.9915 39.5071L31.4686 39.9093V50.8908C31.4686 56.9649 31.5892 62.1539 31.7099 62.5159C31.8306 62.878 32.2731 63.1595 32.6351 63.1595C32.9971 63.1595 36.7381 62.355 40.9215 61.3494C45.1452 60.3438 54.5176 58.0912 61.7984 56.3615L74.9923 53.2239L77.2851 53.7468C78.5321 54.0284 88.0655 56.3213 98.5241 58.775C108.942 61.2287 117.792 63.1595 118.114 63.0389L118.757 62.7975L118.677 51.0115L118.556 39.2657L111.718 37.4154C107.977 36.3695 104.762 35.5781 104.762 35.5781H103.391V42.4033L103.271 48.8796L102.667 48.7589C102.345 48.7187 99.3688 47.9544 96.0301 47.1097L90.0365 45.5409L89.9561 38.9037C89.9159 35.2834 89.7617 32.3798 89.7617 32.0781C89.7617 32.0252 88.7617 31.5781 88.7617 31.5781L88.146 31.3816L88.3873 30.6173L88.146 29.9737L87.8242 29.3703C87.3817 29.129 86.8185 28.606 86.5772 28.1636C86.3358 27.7211 85.7727 25.5087 85.3302 23.2561C84.8475 20.9632 84.3246 18.7911 84.1234 18.4291C83.9223 18.067 82.8362 16.5385 81.7099 15.0501L79.6182 12.355L78.9344 9.57949L78.2103 6.80395L81.0663 7.08552C82.6753 7.24642 84.4452 7.60845 85.0486 7.89002C86.4967 8.61408 87.0599 8.61408 86.899 7.80958L86.7783 7.12575L84.767 6.44192C80.8652 5.07426 79.94 4.71223 78.4114 3.94795L77 3.49999L75.475 3.3848L74.1073 3.66637V2.7412C74.1073 2.21827 73.8258 1.37354 73.4637 0.890828L73.0454 0.552945C73.0454 0.552945 72.611 0.0967573 71.9513 0.00588318C71.2915 -0.0849909 70.406 0.890828 70.406 0.890828ZM80.7445 30.5771C82.7558 31.0598 85.3302 31.7034 86.4967 32.0252L88.5884 32.6286V39.6278V46.627L90.7204 47.2303C96.4324 48.8394 103.552 50.6897 104.075 50.6897H104.679V43.8514V36.9204C105.282 36.9204 115.66 39.7887 116.666 40.2311L117.551 40.6334V51.2931V61.993L116.867 61.7919C115.419 61.3494 80.6641 53.1435 78.2505 52.701L75.7164 52.1781V40.7541V29.3301L76.4404 29.5312C76.8024 29.6519 78.7735 30.1346 80.7445 30.5771ZM74.5096 40.6334V51.4942L73.6246 51.8562C73.1017 52.0574 68.7976 53.1435 64.051 54.31C59.3044 55.4363 53.5925 56.804 51.3801 57.3269C49.1677 57.8498 45.7888 58.6543 43.8579 59.137C41.8869 59.5795 38.7896 60.3036 36.9392 60.746C35.0888 61.1885 33.4798 61.5505 33.3189 61.5505C33.1983 61.5505 33.0776 56.8442 33.0776 51.092V40.6736L35.2095 40.0702C36.3358 39.7484 38.9102 39.0244 40.9215 38.421C42.8925 37.8579 44.7429 37.4154 45.0245 37.4154H45.5474V44.2537V51.092H46.0703C46.4726 51.092 58.7413 47.9142 60.9537 47.2303L61.6375 47.0292V39.9898V32.9504L62.1604 32.7895C63.9706 32.2263 73.2224 29.853 73.8258 29.8128L74.5096 29.7726V40.6334Z" />
        <path fill="#000"
            d="M72.1669 54.1963C70.8395 54.5583 62.4324 56.6098 53.4622 58.8222L37.171 62.8447L33.2691 63.1665L28.08 64.2124C26.3906 65.218 25.3447 66.6661 24.9023 68.6372C24.7011 69.4819 24.5 74.1078 24.5 78.8544V87.0492L24.9023 88.9911L25.5 90.5L26.3906 91.3242C26.9537 91.7667 27.7582 92.1287 28.1605 92.1287H28.9248V81.2679V70.3669L29.2908 69.175C29.8138 68.6119 31.0969 68.3958 31.3383 68.3958H31.7405V72.4183V76.4409H30.9763H30.2522L30.0109 81.2679L30.7751 81.469L31.7405 82.3138V88.5889V94.9043L32.2635 95.2261C32.706 95.5076 67.4204 109.144 72.891 111.155L75.2241 112L77.9191 111.075C83.2289 109.224 118.024 95.6283 118.547 95.2663C118.788 95.0249 119.029 94.3009 119.029 93.6573V92.4907L119.753 92.2896C122.891 91.3242 124.098 90.1175 124.54 87.5028L124.782 85.9743L123.213 86.2156C122.368 86.3765 121.041 86.5776 120.357 86.7385L119.029 86.9799V75.6766V64.3733L118.144 63.971C117.621 63.7699 109.818 61.7587 100.727 59.5865C79.2064 54.3572 75.6263 53.5125 75.0632 53.5527C74.7816 53.5929 73.4944 53.8745 72.1669 54.1963ZM83.7518 56.7707C87.533 57.6959 92.6416 58.9429 95.0149 59.506L102.135 61.2759L95.8998 60.4657L91.5334 60.9944L89.8661 61.5173C88.5788 61.9598 86.5274 63.0056 85.401 63.7699L83.0334 65.7021L81.0165 67.9936C79.7695 69.5221 78.4823 71.5736 78.1605 72.539C77.8387 73.4642 77.3962 75.5559 77.1549 77.1649L77.0833 80.0933L77.1951 83.1183C77.7985 87.7442 78.8443 89.675 82.5451 93.4159C85.3206 96.1915 89.4638 97.7603 94.0897 97.7603C98.9167 97.72 102.698 96.3524 105.675 93.4964L107 92L107.284 90.8817L106.962 90.1979L106 89.5L104.757 89.3934L102.054 90.1979L99.1581 91.5253H96.7043H94.2908L92.8829 90.6806C91.0728 89.6348 89.0213 86.9397 88.3777 84.7675L87.8548 83.078V79.4578L87.895 75.8375L88.5788 73.7458L89.3029 71.6943L90.9924 69.7635C91.9175 68.7176 93.3656 67.5511 94.2908 67.1488L95.8998 66.3846H97.7904H99.7212L101.813 67.1891C102.979 67.6315 104.307 67.9936 104.749 67.9936C105.876 67.9936 107.364 66.8673 107.364 66.0225C107.364 65.1376 105.192 63.0056 103.14 61.9598C102.255 61.4771 99.2021 60.9584 102.135 61.2759C102.457 61.3564 104.186 61.7587 105.956 62.1609C107.726 62.5632 109.898 63.1226 110.18 63.3237V63.6492V72.7804C110.22 86.0145 110.823 89.4739 113.478 91.3644C114.122 91.8471 115.369 92.2896 116.254 92.4103L117.863 92.6516L117.742 93.4964L117.621 94.3009L106.962 98.4441C101.089 100.737 93.4863 103.714 90.0672 105.041C84.315 107.294 76.4308 110.23 76.109 110.23C76.0286 110.23 75.9883 97.8407 75.9883 82.6758V55.1215H76.3906C76.6319 55.1215 79.9304 55.8858 83.7518 56.7707ZM74.7816 82.6758V109.828H74.2586C73.9368 109.828 70.2763 108.5 66.0929 106.851C61.9095 105.202 55.1516 102.587 51.0487 100.978C46.9457 99.4095 41.3142 97.1971 38.4984 96.0708L33.3496 94.0595V89.3532L33.3898 84.687L34.8379 88.2671L36.5 91.5L37.7743 93.3757L39.5 94.5L41.0326 94.9445C42.8427 94.9445 43.8081 94.4216 43.8081 93.4562C43.8081 93.1746 43.4059 92.2494 42.8829 91.4047C42.36 90.6002 41.5153 88.8303 41.0326 87.5028C40.5499 86.1754 39.7051 84.0837 39.1822 82.7965L38.257 80.5438L39.2627 79.6589C39.7856 79.1762 40.5901 78.0499 41.0326 77.1247L41.7969 75.4352L42.0334 72.7021L41.7969 69.9646L41.1533 68.4763C40.8315 67.6718 39.9867 66.3846 39.3029 65.7007C38.5788 64.9767 38.0961 64.3331 38.2168 64.2526C38.6191 63.8906 47.1468 61.9598 47.3479 62.1609C47.4686 62.2816 47.3479 62.362 47.1066 62.362C46.825 62.362 46.2619 62.9654 45.8194 63.6492L45.2908 65.175L45.0149 66.7466V68.5165L49.4397 68.2349L53.8644 67.9936V80.3427L54.2908 92.675L54.4276 94.2607C54.7494 95.1054 55.3125 96.1915 55.755 96.634C56.7204 97.72 59.3753 98.967 60.8636 98.967H61.9899L61.8693 83.3596L61.7084 67.7924H63.662L67.2908 67.175L69.7908 66.175L72.2908 64.675L73.7908 62.675L73.9771 60.9944V59.4256L69.4718 59.7072C66.9779 59.8278 63.3978 60.1496 61.5072 60.3508C59.6166 60.5519 56.5595 60.8335 54.6689 60.9139L51.2498 61.115L62.1106 58.3797C68.1042 56.8512 73.3737 55.564 73.8966 55.564L74.7816 55.5237V82.6758ZM117.742 75.5559L117.823 86.0949H117.42C116.535 86.0949 116.133 83.6814 115.972 77.6476C115.892 74.2285 115.731 69.8439 115.65 67.9533L115.53 64.4537L116.576 64.7353L117.621 65.0169L117.742 75.5559ZM35.6022 70.6484L36.0447 71.675V73.1022C35.8033 74.4698 34.4356 76.4409 33.6714 76.4409C33.5105 76.4409 33.3496 74.7112 33.3496 72.6195V68.7578L34.1541 69.2003C34.5965 69.4417 35.2401 70.0853 35.6022 70.6484Z" />
        <path fill="#000"
            d="M126.757 64.9729L125.945 65.6903V75.6525L126.066 84.5825L126.951 86.4731C127.393 87.4788 128.278 88.6453 128.882 89.0476L129.968 89.7716H131.858L133.749 89.6107L135.358 88.9671L136.776 87.9514L138.5 86L139.34 83.416L139.461 74.6469L139.622 65.8778H138.576H137.53L136.757 66.4729L136.404 67.6879L136.203 74.9285L136.042 82.2093L135.358 83.4965L134.714 84.7837L133.749 85.025C132.18 85.3871 131.335 85.0653 130.692 83.778L130.088 82.5713L130.008 73.7217L129.928 64.8722L128.922 64.7515L127.876 64.6308L126.757 64.9729Z" />
        <path fill="#000"
            d="M12.5905 65.6364C11.9067 65.9582 10.8206 66.8432 10.1368 67.6879L9.03464 69.4498L8.24619 71.4691L7.94051 73.7217L7.75739 77.4729L7.94051 81.4852L8.44733 83.6976C9.89544 88.0017 12.0274 90.0129 15.1247 90.0129L16 90L17.9003 89.2487C18.5841 88.8464 19.5495 87.881 19.992 87.1167C22.5664 82.9735 22.7675 74.0435 20.4747 69.4981C19.1875 67.0443 16.5326 65.0331 14.5213 65.0733C14.1593 65.1135 13.2744 65.3549 12.5905 65.6364ZM15.8488 70.1417C16.1706 70.5037 16.774 71.4289 17.136 72.2334L17.7574 75.9729L17.8198 77.9454L17.7574 80.4729L16.8946 83.8585C16.3315 84.8239 15.5672 85.6686 15.1649 85.8295L14.4007 86.0709L13.4353 85.4273C12.8721 85.0652 12.1481 84.1803 11.7458 83.4562L11.0217 81.311V77.9454C11.0217 75.6123 11.1424 73.239 11.3033 72.6759C11.4642 72.1127 11.9872 71.1473 12.4699 70.5841L13.2574 69.9729L14.2398 69.4981C14.7627 69.4981 15.4868 69.7796 15.8488 70.1417Z" />
        <path fill="#000"
            d="M3.25825 66.6421L1.37574 67.2616L0.965406 67.7282C0.643604 68.1304 0.281577 69.0556 0.160901 69.6992C1.49012e-08 70.3831 -0.0402253 74.3251 0.0402253 78.4683L0.160901 86.0709L2 87L2.53419 87.0765V79.0315C2.57442 74.6872 2.69509 71.0267 2.81577 70.906C2.93644 70.7853 3.90185 70.544 4.94771 70.3428C5.99356 70.1417 6.91874 69.9004 7.03942 69.7797C7.1601 69.659 7.36122 68.8143 7.4819 67.9293L7.72325 66.2801L6.35559 66.3203C5.59131 66.3605 4.22365 66.5214 3.25825 66.6421Z" />
        <path fill="#000"
            d="M141.757 66.9728L141.352 67.9695L141.231 74.1642L141.5 80.5L141.553 82.6115L142.035 84.9043L142.757 85.9728L144 86.5L145.374 86.7949C146.179 86.7949 147.184 86.5938 147.667 86.3524C148.109 86.1111 148.793 85.1859 149.236 84.2607L149.757 82.6115L150 79.7555L149.757 76.9728L149.356 75.733L148.713 74.5262L148.753 72.2334L148.713 70.1417L148.23 68.5729C147.908 67.7684 147.305 66.9639 146.862 66.7225C146.38 66.4812 145.334 66.28 144.449 66.28L142.757 66.4729L141.757 66.9728ZM145.736 70.1417C146.098 70.4635 146.38 71.1875 146.38 71.7507L146.161 73.7217H144.257V74.9729V75.9729L146.621 76.8069L147.104 77.4224L147.385 78.7096C147.707 80.198 147.345 82.1288 146.621 82.7322C145.897 83.3355 144.891 82.8931 144.61 81.8472C144.288 80.6405 144.288 70.1014 144.65 69.7796C145.012 69.4176 145.012 69.4176 145.736 70.1417Z" />
        <path fill="#000"
            d="M5.99359 111.131V112.539H32.5423H59.0909V112.177C59.0909 112.016 57.7635 111.373 56.1947 110.769L53.2583 109.723H29.646H5.99359V111.131Z" />
        <path fill="#000"
            d="M93.7248 110.689C92.5181 111.172 91.4722 111.775 91.3515 112.056L91.1906 112.539H117.578H143.966V111.131V109.723L119.952 109.764L95.897 109.804L93.7248 110.689Z" />
        <path fill="#000"
            d="M5.99359 127.423V128.227H74.9799H143.966V127.423V126.618H74.9799H5.99359V127.423Z" />
        <path fill="#000"
            d="M86.0921 12.3783C86.6753 12.3783 87.148 11.9056 87.148 11.3224C87.148 10.7392 86.6753 10.2665 86.0921 10.2665C85.5089 10.2665 85.0362 10.7392 85.0362 11.3224C85.0362 11.9056 85.5089 12.3783 86.0921 12.3783Z" />
        <path fill="#000"
            d="M64.288 27.7637L64.8351 27.326H65.3822V27.8731V27.9825L65.2454 28.0919L64.9719 28.3107L64.6983 28.4202L64.4248 28.3107L64.288 28.2013V27.7637Z" />
        <path fill="#000"
            d="M1.75739 77.9729V73.9729L5.75739 74.5443V76.83L4.95739 77.4015L1.75739 77.9729Z" />
        <path fill="#000"
            d="M98.9544 124V114.64H100.365L103.602 121.27L106.839 114.64H108.249V124H106.787V118L103.914 124H103.29L100.423 118V124H98.9544ZM109.426 124L112.377 114.64H114.671L117.622 124H116.01L113.332 115.602H113.683L111.038 124H109.426ZM111.07 121.972V120.509H115.984V121.972H111.07ZM118.797 124V114.64H120.383L124.725 121.237V114.64H126.311V124H124.725L120.383 117.402V124H118.797ZM132.087 124.195C131.151 124.195 130.349 123.991 129.682 123.584C129.014 123.172 128.501 122.6 128.141 121.868C127.786 121.136 127.608 120.286 127.608 119.32C127.608 118.354 127.786 117.504 128.141 116.772C128.501 116.04 129.014 115.47 129.682 115.062C130.349 114.651 131.151 114.445 132.087 114.445C133.023 114.445 133.824 114.651 134.492 115.062C135.163 115.47 135.677 116.04 136.032 116.772C136.392 117.504 136.572 118.354 136.572 119.32C136.572 120.286 136.392 121.136 136.032 121.868C135.677 122.6 135.163 123.172 134.492 123.584C133.824 123.991 133.023 124.195 132.087 124.195ZM132.087 122.719C132.715 122.724 133.237 122.585 133.653 122.303C134.074 122.022 134.388 121.625 134.596 121.114C134.808 120.603 134.914 120.005 134.914 119.32C134.914 118.635 134.808 118.042 134.596 117.539C134.388 117.032 134.074 116.638 133.653 116.356C133.237 116.074 132.715 115.929 132.087 115.92C131.458 115.916 130.936 116.055 130.52 116.336C130.104 116.618 129.79 117.015 129.578 117.526C129.37 118.037 129.266 118.635 129.266 119.32C129.266 120.005 129.37 120.6 129.578 121.107C129.786 121.61 130.098 122.002 130.514 122.284C130.934 122.566 131.458 122.711 132.087 122.719Z" />
        <path fill="#000"
            d="M71.26 124L74.211 114.64H76.5055L79.4565 124H77.8445L75.1665 115.602H75.5175L72.872 124H71.26ZM72.9045 121.972V120.509H77.8185V121.972H72.9045Z" />
        <path fill="#000"
            d="M9.20004 124V114.64H13.0675C13.1585 114.64 13.2755 114.644 13.4185 114.653C13.5615 114.657 13.6937 114.67 13.815 114.692C14.3567 114.774 14.803 114.954 15.154 115.231C15.5094 115.509 15.7715 115.86 15.9405 116.284C16.1139 116.705 16.2005 117.173 16.2005 117.688C16.2005 118.2 16.1139 118.668 15.9405 119.092C15.7672 119.513 15.5029 119.862 15.1475 120.139C14.7965 120.416 14.3524 120.596 13.815 120.678C13.6937 120.696 13.5594 120.709 13.412 120.718C13.269 120.726 13.1542 120.73 13.0675 120.73H10.7665V124H9.20004ZM10.7665 119.268H13.0025C13.0892 119.268 13.1867 119.264 13.295 119.255C13.4034 119.246 13.503 119.229 13.594 119.203C13.854 119.138 14.0577 119.023 14.205 118.858C14.3567 118.694 14.4629 118.507 14.5235 118.299C14.5885 118.091 14.621 117.888 14.621 117.688C14.621 117.489 14.5885 117.285 14.5235 117.077C14.4629 116.865 14.3567 116.677 14.205 116.512C14.0577 116.347 13.854 116.232 13.594 116.167C13.503 116.141 13.4034 116.126 13.295 116.122C13.1867 116.113 13.0892 116.109 13.0025 116.109H10.7665V119.268ZM17.5028 124V114.64H23.5478V116.109H19.0693V118.416H22.7678V119.885H19.0693V122.531H23.5478V124H17.5028ZM25.2373 124V114.64H26.8038V122.531H30.9378V124H25.2373ZM35.7435 124.195C34.8075 124.195 34.0058 123.991 33.3385 123.584C32.6712 123.172 32.1577 122.6 31.798 121.868C31.4427 121.136 31.265 120.286 31.265 119.32C31.265 118.354 31.4427 117.504 31.798 116.772C32.1577 116.04 32.6712 115.47 33.3385 115.062C34.0058 114.651 34.8075 114.445 35.7435 114.445C36.6795 114.445 37.4812 114.651 38.1485 115.062C38.8202 115.47 39.3337 116.04 39.689 116.772C40.0487 117.504 40.2285 118.354 40.2285 119.32C40.2285 120.286 40.0487 121.136 39.689 121.868C39.3337 122.6 38.8202 123.172 38.1485 123.584C37.4812 123.991 36.6795 124.195 35.7435 124.195ZM35.7435 122.719C36.3718 122.724 36.894 122.585 37.31 122.303C37.7303 122.022 38.0445 121.625 38.2525 121.114C38.4648 120.603 38.571 120.005 38.571 119.32C38.571 118.635 38.4648 118.042 38.2525 117.539C38.0445 117.032 37.7303 116.638 37.31 116.356C36.894 116.074 36.3718 115.929 35.7435 115.92C35.1152 115.916 34.593 116.055 34.177 116.336C33.761 116.618 33.4468 117.015 33.2345 117.526C33.0265 118.037 32.9225 118.635 32.9225 119.32C32.9225 120.005 33.0265 120.6 33.2345 121.107C33.4425 121.61 33.7545 122.002 34.1705 122.284C34.5908 122.566 35.1152 122.711 35.7435 122.719ZM43.5174 124V116.109H40.4884V114.64H48.1129V116.109H45.0839V124H43.5174ZM48.2483 124L51.1993 114.64H53.4938L56.4448 124H54.8328L52.1548 115.602H52.5058L49.8603 124H48.2483ZM49.8928 121.972V120.509H54.8068V121.972H49.8928Z" />
    </g>
    <defs>
        <clipPath id="clip0_39_214">
            <rect width="150" height="129" />
        </clipPath>
    </defs>
</svg>