<svg
  width="217"
  height="166"
  viewBox="0 0 217 166"
  fill="none"
  xmlns="http://www.w3.org/2000/svg">
  <path
    d="M103.935 110.993C103.571 109.249 103.245 107.485 102.834 105.741C100.984 97.9161 97.4358 90.9361 92.2932 84.7646C86.1599 77.4011 78.531 71.9566 70.1213 67.5132C61.1148 62.7558 51.5825 59.3794 41.7813 56.7092C37.2303 55.4686 32.636 54.3686 28.2655 52.5434C22.1321 49.9825 16.6581 46.4552 12.1019 41.5693C7.16924 36.2809 4.03751 30.0383 2.38923 23.0409C0.678496 15.7746 0.581334 8.45108 1.85832 1.10497C1.89822 0.879414 1.96589 0.659066 2.05958 0.282565C2.22267 0.58446 2.32677 0.757963 2.41179 0.941876C4.20928 4.73118 5.86103 8.59335 8.18943 12.1103C11.9683 17.8185 16.8698 22.3799 22.493 26.216C29.5789 31.0498 37.2425 34.7801 45.1802 37.95C50.748 40.1726 56.4059 42.1679 61.9805 44.3731C72.2085 48.4175 81.9143 53.456 90.8184 59.9571C96.145 63.8471 101.034 68.2124 105.125 73.4123C106.232 74.8194 107.157 76.3705 108.165 77.8574C108.282 78.0292 108.389 78.2062 108.55 78.456C108.715 78.2548 108.837 78.142 108.917 78.0049C111.436 73.617 114.788 69.9197 118.461 66.4861C126.145 59.2978 134.971 53.8238 144.355 49.1809C151.255 45.7663 158.448 43.0684 165.669 40.4329C174.615 37.1693 183.306 33.3401 191.431 28.3258C196.055 25.4717 200.392 22.2428 204.123 18.2523C207.964 14.142 210.902 9.45046 213.183 4.32692C213.702 3.16098 214.243 2.00718 214.781 0.84992C214.852 0.697237 214.958 0.561905 215.149 0.26001C215.324 1.23683 215.492 2.05229 215.612 2.8747C216.783 10.953 216.292 18.922 213.754 26.6932C210.273 37.3497 203.337 45.1001 193.503 50.3555C188.516 53.0205 183.172 54.6688 177.731 56.0742C167.2 58.7929 156.97 62.3359 147.301 67.3796C139.738 71.3251 132.799 76.1294 126.954 82.4015C120.052 89.8083 115.605 98.4713 113.749 108.441C113.613 109.164 113.52 109.896 113.348 110.611C113.304 110.788 113.03 111.038 112.86 111.04C109.933 111.062 107.005 111.05 104.078 111.045C104.036 111.04 103.994 111.014 103.935 110.993Z"
    fill="black"></path>
  <path
    d="M192.76 61.8414C190.642 70.7959 188.559 79.5925 186.479 88.3908C186.214 89.5151 186.165 89.5203 184.81 89.6418C177.101 90.3271 169.618 91.9615 162.52 95.1141C154.228 98.7976 147.451 104.277 142.732 112.117C139.597 117.328 137.739 122.987 137.045 129.02C136.864 130.587 136.833 132.174 136.791 133.753C136.778 134.279 136.614 134.416 136.113 134.414C130.67 134.4 125.227 134.404 119.785 134.409C119.372 134.409 119.079 134.392 119.106 133.831C119.533 124.95 120.763 116.209 123.715 107.775C125.805 101.801 128.715 96.2748 132.806 91.4133C136.502 87.0219 140.942 83.5224 145.852 80.5919C151.787 77.049 158.111 74.3302 164.583 71.9688C171.494 69.4461 178.474 67.1159 185.409 64.6574C187.65 63.8627 189.843 62.9276 192.059 62.06C192.25 61.9837 192.451 61.9369 192.76 61.8414Z"
    fill="black"></path>
  <path
    d="M24.4623 61.8831C24.693 61.9351 24.8423 61.9473 24.9724 62.0028C30.5158 64.4231 36.29 66.2102 42.0017 68.1621C49.5022 70.7248 56.9542 73.4123 64.132 76.7956C69.5383 79.3444 74.6775 82.3286 79.2319 86.2411C85.0131 91.2085 89.191 97.3245 92.1232 104.322C94.5713 110.162 96.1467 116.25 96.957 122.519C97.4376 126.23 97.6632 129.974 98.031 133.701C98.0917 134.321 97.8505 134.418 97.3075 134.416C91.9081 134.399 86.5087 134.4 81.1092 134.414C80.5905 134.416 80.4066 134.293 80.3962 133.727C80.2921 127.53 79.1452 121.552 76.4646 115.926C72.2346 107.051 65.6345 100.522 56.8518 96.1533C51.0221 93.2541 44.8523 91.4497 38.4449 90.4278C36.1807 90.0669 33.8974 89.8066 31.6175 89.5516C31.0727 89.4908 30.8784 89.2445 30.7674 88.7691C29.6778 84.1157 28.5795 79.4641 27.4795 74.8108C26.5148 70.7265 25.5467 66.644 24.582 62.5615C24.5369 62.3637 24.5109 62.1572 24.4623 61.8831Z"
    fill="black"></path>
  <path
    d="M115.553 151.081C116.155 151.208 116.759 151.322 117.356 151.463C118.955 151.837 120.435 152.462 121.709 153.534C124.57 155.946 124.023 161.111 120.711 162.862C118.553 164.003 116.205 164.406 113.809 164.437C109.017 164.498 104.225 164.468 99.4329 164.475C99.1067 164.475 98.7527 164.531 98.7788 164.01C98.8013 163.585 98.6851 163.124 99.3496 163.065C99.9516 163.011 100.557 162.928 101.142 162.778C101.997 162.562 102.429 162.008 102.431 161.132C102.441 155.038 102.436 148.945 102.436 142.853C102.436 142.123 102.103 141.583 101.425 141.342C100.755 141.104 100.063 140.903 99.3635 140.789C98.6781 140.676 98.7753 140.218 98.777 139.77C98.7788 139.253 99.1674 139.349 99.4797 139.349C104.532 139.362 109.583 139.362 114.635 139.404C116.224 139.418 117.777 139.718 119.238 140.386C120.977 141.181 122.023 142.503 122.174 144.424C122.325 146.344 121.662 147.973 119.965 148.952C118.798 149.623 117.484 150.042 116.238 150.574C115.999 150.677 115.761 150.782 115.524 150.887C115.536 150.952 115.544 151.017 115.553 151.081ZM108.719 156.715C108.717 156.715 108.714 156.715 108.712 156.715C108.712 158.014 108.701 159.314 108.715 160.613C108.724 161.413 108.937 162.147 109.755 162.475C111.37 163.124 112.966 163.136 114.467 162.138C115.886 161.194 116.443 159.756 116.57 158.149C116.795 155.269 115.713 152.84 112.312 152.181C111.389 152.002 110.416 152.101 109.467 152.047C108.897 152.016 108.701 152.259 108.712 152.816C108.736 154.115 108.719 155.417 108.719 156.715ZM108.717 145.642C108.72 145.642 108.726 145.642 108.729 145.642C108.729 146.702 108.74 147.764 108.727 148.824C108.708 150.605 108.599 150.307 110.192 150.305C113.636 150.302 115.605 148.143 115.321 144.703C115.157 142.73 113.898 141.318 111.925 141.016C111.12 140.893 110.287 140.95 109.468 140.908C108.908 140.879 108.7 141.12 108.71 141.68C108.734 143.001 108.717 144.321 108.717 145.642Z"
    fill="black"></path>
  <path
    d="M96.211 153.654C96.1815 155.668 95.0051 159.083 92.151 161.795C90.1817 163.665 87.7475 164.609 85.1137 165.034C80.2418 165.82 75.9493 164.566 72.3873 161.127C70.2879 159.1 69.3371 156.479 69.0369 153.626C68.6379 149.821 69.5418 146.351 71.9344 143.332C73.8967 140.856 76.5461 139.474 79.5946 138.917C84.5325 138.013 88.9984 139.035 92.6819 142.6C95.0745 144.913 96.2075 148.02 96.211 153.654ZM75.9285 151.81C76.0517 153.166 76.1297 154.53 76.3067 155.88C76.5652 157.853 77.1152 159.732 78.3176 161.366C80.4343 164.246 84.9419 164.225 86.9459 161.259C87.5653 160.341 88.0615 159.289 88.3738 158.227C89.4114 154.693 89.3576 151.086 88.8301 147.474C88.5682 145.676 88.0338 143.971 86.9303 142.491C85.5371 140.622 83.6528 140.022 81.4198 140.449C79.199 140.874 77.9931 142.458 77.2159 144.408C76.2737 146.775 76.0239 149.275 75.9285 151.81Z"
    fill="black"></path>
  <path
    d="M145.902 143.582C145.902 144.753 145.906 145.924 145.9 147.096C145.899 147.404 146.008 147.819 145.533 147.862C145.078 147.904 144.551 148.029 144.29 147.446C143.99 146.775 143.711 146.094 143.392 145.432C142.642 143.879 141.766 142.416 140.322 141.387C138.544 140.119 135.927 140.02 134.257 141.153C132.081 142.628 132.02 145.607 134.218 147.028C135.167 147.64 136.271 148.032 137.335 148.445C139.37 149.235 141.493 149.825 143.459 150.756C146.475 152.184 147.852 155.16 147.209 158.427C146.587 161.569 144.53 163.471 141.608 164.435C137.716 165.719 133.873 165.384 130.155 163.703C129.477 163.396 128.98 163.304 128.482 163.984C128.099 164.512 127.466 164.545 126.878 164.446C126.714 164.418 126.498 164.109 126.48 163.913C126.419 163.268 126.444 162.614 126.426 161.965C126.378 160.08 126.315 158.196 126.279 156.31C126.272 155.982 126.1 155.547 126.68 155.441C127.216 155.344 127.683 155.37 127.958 155.915C128.182 156.359 128.373 156.819 128.595 157.263C129.607 159.288 130.882 161.106 132.823 162.346C134.69 163.538 136.708 163.767 138.799 163.04C140.343 162.504 141.268 161.385 141.481 159.756C141.703 158.063 140.933 156.801 139.465 156.092C138.011 155.391 136.462 154.884 134.945 154.318C133.832 153.902 132.678 153.585 131.583 153.125C129.015 152.046 127.408 150.147 127.022 147.351C126.605 144.351 127.714 141.969 130.238 140.343C133.294 138.375 136.639 138.259 140.06 139.156C140.935 139.385 141.774 139.753 142.612 140.098C143.048 140.277 143.39 140.306 143.692 139.886C144.179 139.208 144.899 139.302 145.59 139.378C145.687 139.389 145.824 139.656 145.828 139.807C145.847 141.065 145.838 142.321 145.838 143.579C145.859 143.582 145.88 143.582 145.902 143.582Z"
    fill="black"></path>
  <path
    d="M170.477 164.479C168.44 164.479 166.402 164.481 164.365 164.479C164 164.479 163.61 164.555 163.591 163.97C163.573 163.441 163.678 163.119 164.294 163.051C165.02 162.971 165.747 162.825 166.455 162.64C167.212 162.44 167.347 162.159 167.066 161.453C166.419 159.827 165.77 158.2 165.06 156.6C164.944 156.338 164.519 156.057 164.231 156.052C161.74 156.007 159.246 156.007 156.753 156.043C156.475 156.047 156.047 156.3 155.955 156.539C155.412 157.948 154.902 159.374 154.473 160.821C154.171 161.84 154.506 162.376 155.532 162.683C156.149 162.869 156.793 163.002 157.435 163.053C158.042 163.101 158.119 163.427 158.127 163.915C158.138 164.46 157.817 164.481 157.407 164.479C154.393 164.472 151.381 164.472 148.368 164.482C147.983 164.484 147.731 164.411 147.748 163.958C147.764 163.575 147.662 163.132 148.253 163.094C150.559 162.945 151.758 161.491 152.57 159.513C155.303 152.856 158.063 146.212 160.801 139.557C160.976 139.128 161.219 138.95 161.675 138.967C162.368 138.993 163.065 139.016 163.756 138.965C164.382 138.92 164.691 139.18 164.916 139.744C166.889 144.656 168.886 149.559 170.869 154.466C171.607 156.289 172.349 158.11 173.054 159.945C173.727 161.698 174.829 162.9 176.807 163.07C177.403 163.12 177.37 163.564 177.372 163.979C177.374 164.427 177.089 164.482 176.72 164.481C174.639 164.472 172.557 164.475 170.477 164.475C170.477 164.477 170.477 164.479 170.477 164.479ZM160.614 145.52C160.556 145.511 160.499 145.503 160.442 145.494C159.248 148.39 158.053 151.287 156.822 154.272C159.335 154.272 161.682 154.272 164.12 154.272C162.933 151.313 161.773 148.416 160.614 145.52Z"
    fill="black"></path>
  <path
    d="M56.9385 150.76C56.9385 148.31 56.9455 145.86 56.9368 143.41C56.9316 141.857 56.6557 141.502 55.1619 141.068C54.7472 140.947 54.3238 140.836 53.897 140.78C53.2499 140.697 53.2516 140.263 53.2794 139.781C53.3106 139.234 53.7062 139.347 54.041 139.347C58.0299 139.347 62.0187 139.349 66.0075 139.343C66.3684 139.343 66.705 139.295 66.7345 139.822C66.7623 140.306 66.7206 140.679 66.129 140.759C65.6588 140.822 65.1921 140.928 64.7271 141.028C63.641 141.262 63.2697 141.712 63.2679 142.827C63.2644 147.38 63.2749 151.933 63.2592 156.484C63.2575 157.173 63.1985 157.874 63.0649 158.548C62.5913 160.951 61.231 162.756 59.0848 163.875C56.2306 165.364 53.2186 165.643 50.1563 164.569C47.1235 163.505 45.6279 160.511 46.6255 157.605C47.0992 156.224 48.1576 155.526 49.5543 155.389C50.9058 155.257 52.0579 155.736 52.7502 156.949C53.4529 158.179 53.3089 159.418 52.4396 160.528C52.0024 161.089 51.4767 161.581 50.977 162.091C50.4929 162.586 50.5189 162.82 51.1279 163.179C52.483 163.979 54.6917 163.403 55.7639 161.956C56.4944 160.971 56.8761 159.838 56.8934 158.627C56.9316 156.005 56.9056 153.382 56.9056 150.758C56.9177 150.76 56.9281 150.76 56.9385 150.76Z"
    fill="black"></path>
  <path
    d="M157.725 129.103C157.714 126.216 160.011 123.895 162.902 123.872C165.836 123.85 168.227 126.199 168.234 129.11C168.241 131.973 165.865 134.371 162.996 134.397C160.081 134.423 157.735 132.068 157.725 129.103ZM162.971 125.288C160.81 125.278 159.151 126.936 159.146 129.112C159.14 131.225 160.818 132.957 162.89 132.976C165.015 132.995 166.821 131.234 166.834 129.129C166.846 127.037 165.097 125.298 162.971 125.288Z"
    fill="black"></path>
  <path
    d="M161.158 126.83C162.106 126.664 163.01 126.601 163.879 126.943C164.788 127.302 165.102 128.288 164.639 129.221C164.516 129.469 164.344 129.695 164.174 129.966C164.477 130.411 164.791 130.871 165.102 131.326C164.424 131.708 163.966 131.478 163.608 130.892C163.497 130.708 163.379 130.483 163.206 130.394C162.975 130.278 162.668 130.201 162.428 130.255C162.295 130.285 162.168 130.609 162.146 130.812C162.106 131.171 162.137 131.544 161.622 131.52C161.108 131.496 161.158 131.105 161.158 130.757C161.158 129.461 161.158 128.165 161.158 126.83ZM162.135 128.46C162.003 129.037 162.291 129.256 162.876 129.206C163.379 129.162 163.842 129.067 163.884 128.446C163.914 127.989 163.384 127.625 162.756 127.637C162.238 127.648 162 127.89 162.135 128.46Z"
    fill="black"></path>
</svg>