<svg width="94.332mm" height="57.683mm" version="1.1" viewBox="0 0 94.332 57.683" xmlns="http://www.w3.org/2000/svg">
 <defs>
  <clipPath id="clipPath18">
   <path d="M 0,642.065 H 1080 V 0 H 0 Z"/>
  </clipPath>
 </defs>
 <g transform="matrix(.10088 0 0 -.10088 -7.3589 60.21)">
  <g clip-path="url(#clipPath18)">
   <g transform="translate(211.74 245.94)">
    <path d="m0 0c-16.697 0-30.713-6.263-42.053-18.783-11.655 12.52-25.477 18.783-41.463 18.783-9.686 0-18.822-2.406-27.405-7.207h-.354v7.207h-27.522v-138.21h27.522v83.514c0 2.994.786 6.695 2.363 11.104 6.378 10.71 14.648 16.067 24.806 16.067 3.701 0 7.756-.79 12.168-2.363 10.631-6.302 15.946-14.491 15.946-24.57v-83.752h27.523v79.499c0 5.591.708 10.238 2.126 13.939 5.907 11.497 14.489 17.247 25.751 17.247 2.127 0 4.962-.397 8.507-1.184 12.835-5.432 19.254-14.526 19.254-27.285v-82.216h27.522v82.216c0 14.57-4.803 27.285-14.411 38.154-11.656 11.891-25.082 17.839-40.28 17.839" fill="#3458a4"/>
   </g>
   <g transform="translate(680.47 175.42)">
    <path d="m0 0c0-7.482-2.521-15.039-7.561-22.68-9.293-11.655-20.197-17.481-32.719-17.481h-1.774c-6.458 0-12.796 1.613-19.019 4.841-14.725 9.137-22.087 21.42-22.087 36.857 0 8.189 2.637 16.183 7.914 23.982 9.134 11.652 20.317 17.481 33.548 17.481 7.085 0 14.134-1.93 21.143-5.79 13.705-9.134 20.555-20.908 20.555-35.32zm-331.82-40.161h-1.771c-6.459 0-12.8 1.613-19.018 4.841-14.73 9.137-22.092 21.42-22.092 36.857 0 8.189 2.637 16.183 7.915 23.982 9.135 11.652 20.318 17.481 33.548 17.481 7.088 0 14.136-1.93 21.145-5.79 13.702-9.134 20.554-20.908 20.554-35.32v-1.89c0-7.482-2.521-15.039-7.561-22.68-9.292-11.655-20.199-17.481-32.72-17.481m331.82 97.1h-.353c-12.601 9.054-26.305 13.585-41.11 13.585-14.173 0-27.366-4.134-39.573-12.406-1.22-.923-2.401-1.863-3.546-2.817v15.223h-120.01c-15.832 0-27.33-4.253-34.496-12.759-7.245-8.9-10.867-18.546-10.867-28.942 0-11.497 3.739-21.183 11.222-29.057 8.898-8.034 18.584-12.049 29.061-12.049h39.926c11.256 0 16.89-4.646 16.89-13.939l-.945-5.79c-2.287-5.433-6.616-8.149-12.993-8.149h-97.219v110.68h-27.523v-13.585h-.355c-12.601 9.054-26.303 13.585-41.108 13.585-14.175 0-27.367-4.134-39.573-12.406-19.768-14.963-29.649-33.902-29.649-56.816 0-14.808 4.645-28.747 13.939-41.82 15.119-18.113 33.036-27.167 53.748-27.167h3.662c11.627 0 23.045 3.425 34.257 10.257v-10.257h131.36c5.353 0 11.104 1.418 17.243 4.253 15.124 7.561 22.685 19.844 22.685 36.856 0 5.274-.909 10.631-2.72 16.064-6.846 17.088-21.458 25.634-43.824 25.634h-36.975l-5.08.945c-5.668 2.125-8.504 6.259-8.504 12.402 0 3.546 1.301 7.164 3.9 10.869 1.812 2.439 6.459 3.662 13.941 3.662h107.98c-9.382-12.013-14.076-25.912-14.076-41.698 0-14.808 4.646-28.747 13.939-41.82 15.122-18.113 33.036-27.167 53.75-27.167h3.662c13.386 0 26.496 4.527 39.334 13.586v-13.586h27.524v138.21h-27.524z" fill="#3458a4"/>
   </g>
   <g transform="translate(830.49 176.6)">
    <path d="m0 0c0-8.348-2.716-16.536-8.153-24.57-9.527-10.869-20.003-16.302-31.42-16.302h-3.661c-5.433 0-11.5 1.613-18.192 4.845-14.491 9.134-21.735 21.417-21.735 36.853 0 8.188 2.637 16.182 7.915 23.981 9.213 11.653 20.475 17.482 33.783 17.482 8.033 0 15.908-2.522 23.625-7.561 11.889-9.058 17.838-20.241 17.838-33.548zm-41.698 69.813c-14.49 0-28.115-4.531-40.871-13.585h-.592v13.585h-27.527v-221.37h27.527v96.508h.592c12.676-8.899 25.475-13.347 38.389-13.347h5.433c14.884 0 29.296 5.747 43.234 17.247 15.357 14.804 23.037 31.341 23.037 49.612v4.253c0 13.939-4.844 27.445-14.53 40.518-14.884 17.72-33.116 26.579-54.692 26.579" fill="#3458a4"/>
   </g>
   <g transform="translate(980.51 176.6)">
    <path d="m0 0c0-8.348-2.716-16.536-8.153-24.57-9.527-10.869-20.002-16.302-31.42-16.302h-3.661c-5.433 0-11.501 1.613-18.192 4.845-14.491 9.134-21.735 21.417-21.735 36.853 0 8.188 2.637 16.182 7.915 23.981 9.213 11.653 20.475 17.482 33.783 17.482 8.034 0 15.909-2.522 23.624-7.561 11.89-9.058 17.839-20.241 17.839-33.548zm12.994 43.234c-14.884 17.72-33.116 26.579-54.691 26.579-14.491 0-28.116-4.531-40.872-13.585h-.592v13.585h-27.524v-221.37h27.524v96.508h.592c12.676-8.899 25.475-13.347 38.39-13.347h5.432c14.884 0 29.296 5.747 43.235 17.247 15.356 14.804 23.036 31.341 23.036 49.612v4.253c0 13.939-4.845 27.445-14.53 40.518" fill="#3458a4"/>
   </g>
   <g transform="translate(740.54 573.97)">
    <path d="m0 0c6.978 0 12.636-5.657 12.636-12.635 0-6.979-5.658-12.635-12.636-12.635s-12.635 5.656-12.635 12.635c0 6.978 5.657 12.635 12.635 12.635m-51.253-94.061-12.53-15.215s35.801-25.955 35.801-64.442c0-38.485-27.746-76.971-60.862-76.971h-85.027s5.37 25.061-14.321 34.01c0 0 84.133 116.35 137.83 143.2h18.796v-25.956l29.536 25.956v19.69s36.696 25.956 40.276 76.077c0 0-37.591 8.055-77.867-35.801h-20.586l-26.851-29.536 28.641-1.79v-20.585s-122.62-116.16-173.64-123.42c0 0-16.11 23.177-44.751 7.961 0 0-21.481 32.221-52.807 7.16 0 0-9.845 8.056-16.11 7.161 0 0 22.376 79.656 111.88 32.221 0 0-7.16 25.06-38.486 31.325 0 0 10.74 56.386 68.917 56.386s72.497-51.911 72.497-51.911l28.641 20.586-15.215 1.79s-29.536 73.391-127.99 41.171c0 0-87.713 39.38-129.78-62.652 0 0-71.602-18.607-71.602-91.198 0-72.59 82.342-84.226 82.342-84.226h277.46s82.343 20.586 82.343 91.293c0 70.706-46.542 87.711-46.542 87.711" fill="#3458a4"/>
   </g>
  </g>
 </g>
</svg>
