<svg width="512" height="103" viewBox="0 0 512 103" fill="none" xmlns="http://www.w3.org/2000/svg">
<g clip-path="url(#clip0_439_1939)">
<path d="M12.5353 0.53125C12.7478 1.67089 12.7478 2.81053 12.7478 4.21288C7.71619 5.41619 4.23262 8.1655 4.67924 14.0413C5.0256 18.5981 7.47341 21.6408 11.8247 23.8436C11.8486 17.7808 14.5877 13.8208 19.997 11.3489C20.5371 12.4232 21.0323 13.4082 21.6371 14.6112C20.9433 15.0881 20.1889 15.4066 19.7226 15.9656C18.4498 17.4913 16.8551 18.9539 16.1923 20.74C14.851 24.3538 15.9658 25.6808 19.7405 26.1264C24.5289 26.6918 29.1903 26.2377 34.3194 24.7375C31.9115 23.6451 29.9571 22.7585 27.4639 21.6275C28.7989 20.55 29.6449 19.7089 30.6323 19.0955C38.0644 14.479 46.3437 12.3628 54.8838 11.1756C71.1701 8.91162 87.5518 10.3016 103.891 10.1088C106.164 10.082 108.49 10.4255 110.71 10.9446C125.314 14.3584 135.88 27.6395 135.888 42.4525C135.897 57.9129 125.789 70.7258 110.568 74.2684C107.326 75.023 103.932 75.4185 100.603 75.4514C87.3304 75.5828 74.0559 75.5056 60.7821 75.5056C59.8463 75.5056 58.9104 75.5056 57.9745 75.5056C57.8287 75.2516 57.6828 74.9977 57.537 74.7438C59.7966 72.513 62.0563 70.2822 64.3684 67.9997C62.3484 67.4222 60.1751 66.8009 57.6351 66.0747C58.2028 65.4665 58.569 64.9094 59.0769 64.5556C64.0025 61.1242 69.3274 60.4363 74.9261 62.5526C76.9792 63.3287 78.9452 64.3788 80.8638 65.4587C87.4415 69.1608 94.4231 69.2895 101.411 67.3661C108.047 65.5399 112.536 59.0497 112.581 52.1804C112.623 45.8421 108.152 39.5406 101.95 37.3132C101.83 38.0975 101.713 38.8591 101.516 40.1492C97.1243 40.1492 92.738 40.1022 88.3545 40.1925C87.5654 40.2087 86.3975 40.5658 86.0641 41.1451C81.6707 48.778 74.6096 52.1344 66.3697 53.5919C60.3346 54.6594 54.7661 56.6568 50.091 61.2794C49.0762 60.455 48.0875 59.6519 46.9524 58.7298C51.7791 53.5899 57.7765 51.3637 64.2485 49.8259C68.1585 48.8968 72.1125 47.6985 75.667 45.8792C78.2875 44.538 80.2939 41.9968 83.0032 39.6125C80.5971 38.7723 79.0432 38.1749 77.4502 37.7122C77.0567 37.5978 76.3416 37.7657 76.103 38.0655C72.1973 42.9721 66.6457 44.8209 60.8703 45.8761C53.8823 47.153 47.736 49.8824 42.4528 55.0185C41.3761 54.1445 40.3847 53.3397 39.2473 52.4163C44.548 47.2959 50.4987 43.9904 57.5303 42.4333C61.3771 41.5814 65.1383 40.2389 68.8267 38.8268C70.3098 38.259 71.4946 36.9118 72.8152 35.9194C72.7916 35.5905 72.7679 35.2616 72.7443 34.9326C71.563 34.761 70.2987 34.2291 69.2145 34.4788C63.9457 35.6923 58.8138 35.0975 53.8254 33.3787C52.9399 33.0736 52.5455 31.3433 51.7217 29.9214C51.4177 30.106 50.6471 30.5513 49.899 31.0316C42.3122 35.9029 34.1982 38.7066 25.0447 37.2218C20.3615 36.462 16.6777 34.0914 14.0204 30.1041C13.5238 29.3589 12.7252 28.6342 11.9045 28.3149C6.35171 26.1548 2.57911 22.3801 0.707866 16.5406C0.532015 14.6796 0.532015 12.8944 0.694208 10.7655C1.96106 8.36595 2.69026 5.93338 4.27233 4.35649C5.97184 2.66256 8.47233 1.77224 10.6233 0.53125C11.1898 0.53125 11.7564 0.53125 12.5353 0.53125ZM37.1327 27.9537C31.4261 28.9739 25.7196 29.9941 20.2795 30.9666C24.4856 35.968 38.7185 33.7308 44.1677 29.3915C41.7525 28.9656 40.2105 26.3779 37.1327 27.9537ZM43.4411 18.1785C43.688 19.0992 43.7282 20.178 44.2635 20.8784C44.5604 21.2669 46.0918 21.3384 46.3526 21.0009C46.9368 20.2449 47.5996 18.9037 47.2917 18.2297C46.4864 16.4672 45.0179 16.6111 43.4411 18.1785Z" fill="#03B2EB"/>
<path d="M403.865 103.037C403.652 98.5641 403.652 94.0909 403.652 89.6992C406.113 88.7355 407.334 89.4103 407.991 91.6838C408.62 93.8577 409.575 95.9371 410.649 98.7418C411.72 95.9568 412.704 93.8065 413.366 91.5611C413.965 89.5277 415.093 88.8704 417.099 89.4457C417.099 93.8055 417.099 98.2121 417.015 102.828C416.364 103.037 415.797 103.037 415.05 102.792C414.869 100.239 414.869 97.9327 414.869 95.1874C413.456 98.1204 412.272 100.579 411.088 103.037C410.69 103.037 410.291 103.037 409.687 102.836C408.611 100.235 407.74 97.8355 406.717 95.017C406.357 98.0918 406.067 100.564 405.777 103.037C405.21 103.037 404.644 103.037 403.865 103.037Z" fill="#0DB5EC"/>
<path d="M269.49 103.037C269.277 98.548 269.277 94.059 269.277 89.686C271.388 88.8018 272.539 89.4362 273.463 91.0741C274.697 93.2599 276.1 95.3499 277.964 97.3193C277.964 94.7265 277.964 92.1336 277.964 89.4226C278.922 89.4226 279.597 89.4226 280.735 89.4226C280.735 93.8338 280.735 98.2079 280.849 102.809C280.962 103.037 280.696 103.037 280.429 102.899C278.338 102.969 277.269 102.063 276.41 100.52C275.212 98.3649 273.815 96.3206 272.324 93.9449C271.978 97.3546 271.69 100.196 271.402 103.037C270.835 103.037 270.269 103.037 269.49 103.037Z" fill="#10B6EC"/>
<path d="M485.161 103.037C484.912 98.5702 484.912 94.1032 484.912 89.2679C488.261 89.2679 491.221 89.2161 494.175 89.3273C494.588 89.3429 494.971 90.1589 495.368 90.6044C494.897 90.9807 494.446 91.6466 493.95 91.6817C492.117 91.8117 490.268 91.7334 488.131 91.7334C488.083 92.6816 488.042 93.4812 487.989 94.5056C490.145 94.5056 492.056 94.5056 493.982 94.5056C494.999 96.6481 494.103 97.1467 492.278 97.0593C490.974 96.9969 489.664 97.0472 488.108 97.0472C488.05 98.1769 488.003 99.1007 487.936 100.413C489.919 100.413 491.745 100.513 493.555 100.385C495.321 100.261 495.744 101.055 495.488 102.812C492.16 103.037 488.785 103.037 485.161 103.037Z" fill="#27BDEE"/>
<path d="M445.822 103.038C445.609 98.5617 445.609 94.0857 445.609 89.6926C447.688 88.8112 448.812 89.452 449.73 91.0851C450.957 93.2676 452.366 95.3474 454.173 97.3416C454.173 95.3608 454.263 93.3747 454.147 91.4008C454.041 89.6088 454.664 88.9142 457.008 89.5909C456.823 93.8222 456.63 98.2269 456.335 102.835C455.665 103.038 455.099 103.038 454.276 102.858C452.288 99.8985 450.557 97.1176 448.688 94.1154C448.337 97.3968 448.035 100.217 447.734 103.038C447.167 103.038 446.601 103.038 445.822 103.038Z" fill="#0DB5EC"/>
<path d="M427.27 103.037C427.021 98.5441 427.021 94.0511 427.021 89.2791C429.916 89.2791 432.723 89.2261 435.525 89.3303C436.003 89.3481 436.456 90.039 436.92 90.419C436.414 90.8487 435.936 91.6033 435.397 91.649C433.569 91.8039 431.72 91.7081 429.714 91.7081C429.629 92.6913 429.565 93.4428 429.466 94.5886C431.034 94.5886 432.419 94.6298 433.8 94.5776C435.347 94.5191 436.546 94.6909 435.686 96.9469C433.831 96.9469 431.91 96.9469 429.75 96.9469C429.75 98.1517 429.75 99.137 429.75 100.338C432.026 100.338 434.299 100.338 436.998 100.338C436.881 101.274 436.794 101.96 436.645 102.842C433.561 103.037 430.54 103.037 427.27 103.037Z" fill="#19B9ED"/>
<path d="M346.503 103.037C346.291 98.5616 346.291 94.0862 346.291 89.33C348.878 89.33 351.166 89.1219 353.401 89.3769C357.118 89.8009 358.065 92.9542 356.041 95.942C356.404 98.4695 356.698 100.518 356.953 102.802C356.176 103.037 355.438 103.037 354.538 102.813C353.973 97.5971 353.593 97.2575 349.363 98.0089C349.043 99.7086 348.729 101.373 348.415 103.037C347.849 103.037 347.282 103.037 346.503 103.037ZM349.528 91.7104C349.328 92.8984 349.128 94.0863 348.905 95.4119C350.06 95.4667 350.856 95.7371 351.406 95.4808C352.454 94.9928 354.02 94.3397 354.191 93.5119C354.559 91.7251 352.831 91.6696 351.522 91.5585C351.004 91.5146 350.477 91.5754 349.528 91.7104Z" fill="#0EB5EC"/>
<path d="M289.143 103.037C290.469 98.7359 291.972 94.4207 293.601 90.1537C293.767 89.719 294.738 89.2858 295.253 89.3687C295.879 89.4695 296.722 89.9954 296.945 90.5492C298.555 94.5543 300.032 98.613 301.614 102.846C300.767 103.037 299.856 103.037 298.808 102.833C298.421 100.414 297.273 99.8374 294.999 99.6491C292.091 99.4084 292.181 101.729 291.055 103.037C290.488 103.037 289.922 103.037 289.143 103.037ZM295.894 94.2983C295.644 93.8735 295.393 93.4487 294.978 92.7452C294.432 94.4226 293.989 95.786 293.477 97.3564C294.779 97.3564 295.734 97.3564 296.908 97.3564C296.557 96.2964 296.288 95.4857 295.894 94.2983Z" fill="#0FB5EC"/>
<path d="M329.535 103.037C326.767 101.662 325.856 99.5373 326.063 96.6969C326.235 94.3394 326.099 91.9595 326.099 89.4499C327.061 89.4499 327.793 89.4499 328.776 89.4499C328.776 92.1988 328.825 94.8332 328.76 97.4647C328.709 99.5278 329.6 100.719 331.674 100.712C333.783 100.705 334.575 99.43 334.525 97.405C334.461 94.8488 334.509 92.2898 334.509 89.501C335.36 89.4272 336.091 89.3637 337.131 89.2734C337.131 92.7219 337.401 95.9962 336.998 99.1853C336.837 100.452 335.185 101.531 334.144 102.866C332.642 103.037 331.208 103.037 329.535 103.037Z" fill="#0BB4EC"/>
<path d="M365.102 103.037C366.425 98.9104 367.92 94.7633 369.569 90.6783C369.816 90.0671 370.753 89.4579 371.429 89.3846C371.969 89.3262 372.919 89.9575 373.134 90.5016C374.724 94.5097 376.174 98.5728 377.648 102.828C376.889 103.037 376.152 103.037 375.168 102.835C374.569 100.342 373.295 99.7614 370.973 99.666C368.198 99.552 368.33 101.584 367.536 103.037C366.798 103.037 366.061 103.037 365.102 103.037ZM370.666 94.393C370.331 95.3406 369.995 96.2881 369.551 97.5446C370.919 97.4698 371.878 97.4174 373.065 97.3525C372.477 95.6071 372.025 94.2636 371.473 92.6231C371.137 93.2825 370.945 93.6577 370.666 94.393Z" fill="#10B6EC"/>
<path d="M512.532 24.7411C512.201 25.4468 511.83 25.9092 511.546 26.4193C509.85 29.4554 506.671 30.8572 503.507 29.9395C500.305 29.0104 498.251 26.2224 498.424 23.0383C498.603 19.7396 501.125 16.9971 504.385 16.5565C507.638 16.1168 510.675 17.9619 511.919 21.1507C512.046 21.4749 512.09 21.8312 512.352 22.2397C512.532 23.0444 512.532 23.7821 512.532 24.7411ZM502.697 27.3941C504.953 28.6508 507.028 28.5602 509.171 26.3765C510.658 23.631 510.523 21.379 508.607 19.8107C506.648 18.2064 504.554 17.9203 502.108 19.784C499.726 22.7226 499.817 24.6336 502.697 27.3941Z" fill="#0D58A3"/>
<path d="M469.738 103.038C469.511 99.4299 469.511 95.822 469.511 92.3161C468.609 90.6568 464.889 93.4233 465.419 89.2634C468.828 89.2634 472.166 89.2171 475.5 89.3191C475.941 89.3326 476.36 90.101 476.789 90.5198C476.343 90.9251 475.956 91.542 475.437 91.6868C474.626 91.913 473.726 91.8194 472.524 91.8777C472.524 95.5385 472.524 99.0516 472.611 102.801C471.787 103.038 470.877 103.038 469.738 103.038Z" fill="#29BEEE"/>
<path d="M310.934 103.038C310.706 99.4299 310.706 95.822 310.706 92.3161C309.804 90.6568 306.084 93.4233 306.614 89.2634C310.024 89.2634 313.362 89.2171 316.695 89.3191C317.137 89.3326 317.555 90.101 317.985 90.5198C317.538 90.9251 317.151 91.542 316.632 91.6868C315.821 91.913 314.921 91.8194 313.719 91.8777C313.719 95.5385 313.719 99.0516 313.806 102.801C312.982 103.038 312.072 103.038 310.934 103.038Z" fill="#29BEEE"/>
<path d="M386.373 103.038C386.125 98.5628 386.125 94.088 386.125 89.5681C388.006 88.8213 388.682 89.4538 388.618 91.4068C388.524 94.2948 388.594 97.1882 388.594 100.283C390.779 100.283 392.77 100.283 395.266 100.283C395.06 101.286 394.913 102.003 394.694 102.879C391.956 103.038 389.288 103.038 386.373 103.038Z" fill="#13B7ED"/>
<path d="M165.102 33.0881C165.102 47.3058 165.102 61.2795 165.102 75.4846C160.994 75.4846 157 75.4846 152.834 75.4846C152.834 53.7232 152.834 31.9964 152.834 9.81971C156.981 9.81971 161.184 9.73121 165.376 9.91038C166.043 9.93888 166.794 11.086 167.277 11.8587C175.996 25.7831 184.679 39.7298 193.372 53.6701C193.738 54.2564 194.127 54.8283 194.85 55.9363C194.85 40.3252 194.85 25.2895 194.85 10.0244C199.106 10.0244 203.1 10.0244 207.267 10.0244C207.267 31.7877 207.267 53.5147 207.267 75.6835C203.118 75.6835 198.915 75.773 194.723 75.5913C194.06 75.5625 193.324 74.3886 192.835 73.6102C184.336 60.0701 175.871 46.5087 167.396 32.9533C166.798 31.9975 166.185 31.0519 165.245 29.5786C165.181 31.0362 165.142 31.9402 165.102 33.0881Z" fill="#0754A1"/>
<path d="M216.441 68.6616C213.316 59.7217 216.298 52.6636 224.961 49.481C229.728 47.7298 234.845 46.9375 239.798 45.6862C241.247 45.32 242.704 44.9447 244.102 44.4255C245.845 43.7784 247.113 42.416 246.578 40.5815C246.163 39.1552 245.143 37.3132 243.923 36.823C240.136 35.3014 236.118 35.4385 232.301 37.0001C229.13 38.2977 229.106 41.3577 228.718 44.3382C225.122 44.3382 221.537 44.3382 217.642 44.3382C217.293 40.0197 218.595 36.1838 221.572 32.9201C225.968 28.0997 231.857 26.9875 237.953 26.692C240.4 26.5733 242.922 26.8027 245.329 27.2824C253.192 28.8498 257.562 34.1592 257.666 42.2034C257.757 49.2774 257.686 56.3535 257.686 63.4286C257.686 64.2894 257.686 65.1502 257.686 66.1548C259.063 66.2508 260.179 66.3286 261.445 66.4168C261.445 69.6279 261.445 72.7603 261.445 75.8743C254.216 77.4046 250.115 76.036 247.169 71.1288C240.804 76.9605 233.386 78.233 225.254 76.019C221.321 74.948 218.345 72.569 216.441 68.6616ZM241.512 66.1118C246.181 63.1422 247.574 59.3301 246.386 52.7285C242.022 53.7705 237.634 54.7172 233.312 55.9037C231.736 56.3363 230.176 57.1498 228.859 58.1267C226.877 59.5968 226.531 61.744 227.138 64.093C227.704 66.281 229.245 67.5828 231.32 67.4983C234.61 67.3642 237.88 66.7362 241.512 66.1118Z" fill="#0452A0"/>
<path d="M463.33 47.9892C467.935 46.9715 472.363 46.1335 476.725 45.0358C480.056 44.1975 481.347 42.5849 481.089 40.2604C480.836 37.975 479.061 36.4825 475.981 36.1141C474.583 35.9468 473.153 35.8497 471.751 35.9381C465.277 36.3461 463.796 37.7757 462.976 44.534C461.215 44.534 459.4 44.534 457.584 44.534C455.741 44.534 453.897 44.534 452.077 44.534C451.433 38.0718 454.657 32.1187 460.646 29.3536C467.929 25.9907 475.565 25.528 483.089 28.3391C489.911 30.8882 492.036 36.6713 492.096 43.4351C492.154 49.9823 492.109 56.5305 492.109 63.0782C492.109 64.0389 492.109 64.9995 492.109 66.1319C493.259 66.2274 494.204 66.3059 495.346 66.4007C495.346 69.5771 495.346 72.7793 495.346 76.2336C490.198 75.8876 484.401 77.7921 481.567 71.0488C475.678 76.6035 468.733 77.9494 461.114 76.4613C454.644 75.1976 450.452 70.7288 449.708 64.5312C448.916 57.9285 451.753 52.8186 457.908 49.973C459.584 49.1983 461.383 48.6886 463.33 47.9892ZM480.67 60.0805C480.867 57.6414 481.064 55.2024 481.276 52.5788C476.386 53.7519 471.839 54.7513 467.352 55.9711C465.859 56.3769 464.354 57.1391 463.143 58.1014C460.039 60.5677 460.781 66.134 464.358 67.2831C469.199 68.8383 478.423 67.4791 480.67 60.0805Z" fill="#0552A0"/>
<path d="M407.426 72.1944C403.063 68.667 401.216 64.1916 401.25 58.6289C404.894 58.6289 408.473 58.6289 412.158 58.6289C412.174 58.646 412.37 58.7568 412.4 58.9019C414.038 66.8407 423.299 70.8258 430.251 66.3656C431.513 65.5558 432.7 63.5237 432.655 62.0955C432.611 60.6846 431.252 58.5948 429.962 58.0834C426.632 56.7637 422.985 56.2742 419.536 55.2222C416.012 54.1476 412.314 53.2567 409.144 51.4799C400.84 46.8253 400.687 35.4703 408.613 30.1725C415.969 25.2554 429.777 25.7278 436.749 31.137C440.639 34.155 442.488 38.1681 442.612 43.2612C438.992 43.2612 435.427 43.2612 431.825 43.2612C428.876 36.6425 424.68 34.5338 418.217 36.402C416.045 37.0298 414.482 38.2357 414.449 40.5839C414.417 42.7889 416.042 43.8459 417.959 44.3336C421.978 45.3565 426.06 46.1509 430.043 47.2927C432.654 48.041 435.287 48.9641 437.651 50.2751C446.265 55.0522 446.836 67.5022 438.713 73.1204C433.012 77.0638 426.486 77.4183 419.863 76.7779C415.413 76.3476 411.201 75.0967 407.426 72.1944Z" fill="#0452A0"/>
<path d="M298.051 68.8539C297.436 66.0108 296.488 63.3596 296.439 60.6918C296.254 50.7876 296.365 40.878 296.365 30.9704C296.365 30.1087 296.365 29.247 296.365 28.2686C300.168 28.2686 303.749 28.2686 307.608 28.2686C307.608 32.9202 307.608 37.4894 307.608 42.0586C307.608 47.1893 307.607 52.32 307.608 57.4507C307.61 64.1204 310.092 67.2554 315.521 67.4494C322.491 67.6985 327.384 63.9012 327.598 57.6314C327.839 50.5627 327.686 43.4805 327.7 36.4043C327.706 33.7618 327.701 31.1193 327.701 28.3132C331.404 28.3132 334.978 28.3132 338.705 28.3132C338.705 44.0085 338.705 59.7089 338.705 75.5568C335.096 75.5568 331.503 75.5568 327.821 75.5568C327.746 74.3979 327.674 73.2947 327.583 71.8938C321.993 76.4877 315.799 77.7613 309.033 76.61C304.222 75.7912 300.498 73.3866 298.051 68.8539Z" fill="#02509F"/>
<path d="M289.497 66.4722C289.739 69.4479 289.739 72.4221 289.739 75.5917C285.536 76.4309 281.235 76.7942 277.023 75.3783C271.823 73.6304 269.996 69.3655 269.856 64.3821C269.635 56.5106 269.746 48.6298 269.717 40.7529C269.714 39.792 269.717 38.8311 269.717 37.5276C267.376 37.5276 265.223 37.5276 262.99 37.5276C262.99 34.2796 262.99 31.3817 262.99 28.1849C265.167 28.1849 267.324 28.1849 269.673 28.1849C269.673 23.2301 269.673 18.5688 269.673 13.7139C273.44 13.7139 277.007 13.7139 280.767 13.7139C280.767 18.4274 280.767 23.0858 280.767 28.0133C283.813 28.0133 286.685 28.0133 289.732 28.0133C289.732 31.2325 289.732 34.1869 289.732 37.4363C285.603 37.4363 281.49 37.4363 277.403 37.4363C277.367 37.8929 277.278 38.1467 277.352 38.2105C280.973 41.3266 281.121 45.4468 280.923 49.7845C280.738 53.8477 280.844 57.9266 280.897 61.9976C280.954 66.3501 281.802 67.1296 286.105 66.8968C287.16 66.8398 288.206 66.6172 289.497 66.4722Z" fill="#0552A0"/>
<path d="M348.945 63.7347C348.945 51.7987 348.945 40.1283 348.945 28.3034C352.673 28.3034 356.249 28.3034 360.056 28.3034C360.056 29.8559 360.056 31.3943 360.056 33.7273C364.58 27.1213 370.449 26.3157 377.055 27.4758C377.055 30.9917 377.055 34.3219 377.055 37.8484C374.658 37.8484 372.327 37.5131 370.129 37.9131C364.226 38.9874 360.187 44.1836 360.12 50.5697C360.043 58.0046 360.101 65.4409 360.101 72.8766C360.101 73.7377 360.101 74.5988 360.101 75.5814C356.345 75.5814 352.834 75.5814 348.945 75.5814C348.945 71.6987 348.945 67.8495 348.945 63.7347Z" fill="#02509F"/>
<path d="M383.483 75.169C383.396 59.7165 383.389 44.4971 383.387 29.2776C383.387 29.0175 383.439 28.7573 383.486 28.3223C387.056 28.3223 390.634 28.3223 394.378 28.3223C394.378 44.014 394.378 59.7081 394.378 75.402C390.725 75.402 387.145 75.402 383.483 75.169Z" fill="#0452A0"/>
<path d="M394.948 10.8013C395.112 14.6201 395.112 18.2402 395.112 22.0451C391.022 22.0451 387.005 22.0451 382.812 22.0451C382.812 18.2907 382.812 14.5348 382.812 10.6025C386.865 10.6025 390.824 10.6025 394.948 10.8013Z" fill="#0854A1"/>
<path d="M508.051 26.3348C507.081 25.9778 506.029 25.4547 504.882 24.8848C504.559 25.2561 503.975 25.9253 503.193 26.5503C502.987 24.5739 502.981 22.6418 502.983 20.4687C503.772 20.19 504.556 20.0912 505.335 20.1257C507.563 20.2245 508.242 21.2662 507.788 23.3699C507.598 24.2487 507.894 25.2325 508.051 26.3348Z" fill="#0D58A3"/>
</g>
<defs>
<clipPath id="clip0_439_1939">
<rect width="512" height="102.506" fill="white"/>
</clipPath>
</defs>
</svg>
