<?xml version="1.0" standalone="no"?>
<!DOCTYPE svg PUBLIC "-//W3C//DTD SVG 20010904//EN"
 "http://www.w3.org/TR/2001/REC-SVG-20010904/DTD/svg10.dtd">
<svg version="1.0" xmlns="http://www.w3.org/2000/svg"
 width="1250.000000pt" height="442.000000pt" viewBox="0 0 1250.000000 442.000000"
 preserveAspectRatio="xMidYMid meet">

<g transform="translate(0.000000,442.000000) scale(0.100000,-0.100000)"
fill="#000000" stroke="none">
<path d="M1818 3260 c-291 -61 -530 -214 -704 -450 l-59 -80 -317 0 -318 0 0
-140 0 -140 714 0 713 0 27 -26 c36 -37 36 -91 0 -128 l-27 -26 -713 0 -714 0
0 -140 0 -140 716 -2 716 -3 24 -28 c32 -37 32 -87 0 -124 l-24 -28 -716 -3
-716 -2 0 -140 0 -140 323 0 322 -1 50 -71 c108 -153 312 -314 490 -385 164
-66 230 -78 435 -77 168 0 194 2 282 26 208 57 375 153 524 302 384 383 450
968 163 1432 -103 166 -296 339 -473 424 -215 102 -495 137 -718 90z m389
-276 c167 -34 300 -103 420 -218 91 -86 152 -168 199 -271 59 -128 76 -211 76
-365 0 -154 -17 -237 -76 -365 -47 -103 -108 -185 -199 -271 -241 -230 -587
-297 -903 -175 -89 34 -211 111 -263 165 l-35 36 190 0 c105 0 217 5 249 11
250 46 382 316 266 541 l-29 58 29 53 c51 94 55 231 9 334 -29 66 -111 146
-183 179 -62 29 -64 29 -301 34 l-239 5 57 53 c188 171 478 249 733 196z"/>
<path d="M6720 2736 c-243 -52 -433 -219 -502 -441 -16 -51 -22 -96 -22 -165
0 -472 536 -766 985 -540 57 29 159 105 159 118 0 4 -42 42 -93 83 l-94 76
-34 -28 c-54 -43 -128 -76 -196 -89 -172 -31 -355 66 -431 228 -23 49 -27 70
-27 152 0 87 3 101 32 161 116 235 413 295 625 128 l38 -31 97 78 96 78 -49
43 c-59 52 -156 104 -249 133 -90 27 -245 35 -335 16z"/>
<path d="M9076 2734 c-150 -33 -255 -93 -360 -204 -105 -112 -159 -248 -159
-400 0 -95 16 -165 60 -260 49 -103 175 -230 283 -282 112 -55 187 -72 315
-72 134 -1 192 12 315 71 78 38 108 59 170 122 83 83 139 177 165 277 19 75
19 213 0 288 -54 207 -243 392 -460 450 -89 24 -246 29 -329 10z m273 -240
c26 -7 71 -31 101 -51 137 -96 199 -261 154 -414 -42 -142 -153 -243 -305
-275 -182 -38 -368 55 -447 224 -23 49 -27 70 -27 152 0 82 4 103 27 152 71
151 235 247 397 231 29 -2 74 -11 100 -19z"/>
<path d="M11470 2735 c-55 -17 -124 -74 -149 -124 -10 -20 -105 -250 -209
-511 -105 -261 -198 -492 -207 -512 l-15 -38 138 0 138 0 48 120 48 120 291
-2 291 -3 46 -115 46 -115 138 -3 c136 -3 137 -2 131 18 -28 87 -420 1041
-440 1069 -31 45 -80 78 -141 97 -58 17 -95 17 -154 -1z m107 -297 c19 -30
161 -387 155 -392 -8 -9 -362 -7 -362 2 0 18 153 388 164 394 17 11 34 9 43
-4z"/>
<path d="M3970 2610 l0 -130 208 -2 207 -3 3 -472 2 -473 130 0 130 0 2 473 3
472 208 3 208 2 -3 128 -3 127 -547 3 -548 2 0 -130z"/>
<path d="M7545 2731 c-11 -5 -33 -23 -50 -41 l-30 -31 -3 -565 -2 -564 125 0
125 0 0 351 c0 201 4 348 9 345 5 -3 112 -157 237 -343 213 -312 232 -338 273
-356 71 -31 141 -10 181 56 19 31 20 55 20 585 l0 552 -125 0 -125 0 -2 -351
-3 -351 -226 333 c-125 184 -239 345 -253 358 -28 26 -113 39 -151 22z"/>
<path d="M5275 2713 c-44 -23 -74 -53 -96 -95 -18 -35 -19 -64 -19 -482 0
-258 4 -455 10 -470 5 -14 26 -43 46 -65 61 -68 81 -71 521 -71 l383 0 0 135
0 135 -339 0 c-295 0 -342 2 -355 16 -11 11 -16 35 -16 83 0 106 -15 101 318
101 l282 0 0 130 0 129 -286 3 c-332 3 -314 -3 -314 108 0 106 -22 100 373
100 l337 0 0 130 0 130 -407 0 c-352 -1 -412 -3 -438 -17z"/>
<path d="M9835 2700 c24 -76 419 -1040 437 -1067 49 -72 164 -121 253 -107 56
8 132 51 167 95 18 22 109 236 243 567 l214 532 -139 0 -138 0 -172 -432 c-95
-238 -181 -441 -190 -452 -13 -14 -22 -16 -36 -8 -11 6 -84 176 -194 448
l-177 439 -137 3 c-135 3 -137 2 -131 -18z"/>
</g>
</svg>
