<svg id="header-logo" width="35" height="45" viewBox="0 0 50 45" fill="none"
    xmlns="http://www.w3.org/2000/svg">
    <path
        d="M38.5842 7.65292C38.5331 7.72307 38.4694 7.78047 38.4375 7.78047C38.3737 7.78047 38.2015 7.94629 38.2015 8.00369C38.2015 8.05471 38.0293 8.2269 37.9783 8.2269C37.9592 8.2269 37.8699 8.29705 37.787 8.38634C37.6977 8.46925 37.6275 8.55853 37.6275 8.57767C37.6275 8.62869 37.4553 8.80088 37.4043 8.80088C37.3533 8.80088 37.1811 8.97307 37.1811 9.02409C37.1811 9.07512 36.8814 9.37486 36.824 9.37486C36.7666 9.37486 36.4796 9.71287 36.4796 9.77027C36.4796 9.80216 36.4477 9.82129 36.4158 9.82129C36.3393 9.82129 36.0331 10.1083 36.0331 10.1721C36.0331 10.2231 35.8609 10.3953 35.8099 10.3953C35.7589 10.3953 35.5867 10.5675 35.5867 10.6185C35.5867 10.6376 35.5166 10.7269 35.4273 10.8098C35.3444 10.8991 35.2551 10.9692 35.2359 10.9692C35.1849 10.9692 35.0127 11.1414 35.0127 11.1925C35.0127 11.2435 34.8405 11.4157 34.7895 11.4157C34.7385 11.4157 34.4388 11.7154 34.4388 11.7664C34.4388 11.8175 34.2666 11.9897 34.2155 11.9897C34.1645 11.9897 33.9923 12.1618 33.9923 12.2129C33.9923 12.2639 33.6926 12.5636 33.6416 12.5636C33.5905 12.5636 33.4183 12.7358 33.4183 12.7868C33.4183 12.8379 33.2462 13.0101 33.1951 13.0101C33.1441 13.0101 32.8444 13.3098 32.8444 13.3608C32.8444 13.4118 32.6722 13.584 32.6212 13.584C32.5701 13.584 32.3979 13.7562 32.3979 13.8073C32.3979 13.8264 32.3278 13.9157 32.2385 13.9986C32.1556 14.0879 32.0663 14.158 32.0472 14.158C31.9962 14.158 31.824 14.3302 31.824 14.3812C31.824 14.4323 31.6518 14.6045 31.6007 14.6045C31.5816 14.6045 31.4923 14.6746 31.4094 14.7639C31.3201 14.8468 31.25 14.9361 31.25 14.9552C31.25 15.0062 31.0778 15.1784 31.0268 15.1784C30.9757 15.1784 30.8036 15.3506 30.8036 15.4016C30.8036 15.4527 30.5038 15.7524 30.4528 15.7524C30.4018 15.7524 30.2296 15.9246 30.2296 15.9756C30.2296 16.0394 30.051 16.1988 29.9808 16.1988C29.9426 16.1988 29.9107 16.2244 29.9107 16.2626C29.9107 16.2945 29.8405 16.3264 29.7513 16.3264C29.662 16.3264 29.5918 16.2945 29.5918 16.2626C29.5918 16.2244 29.5599 16.1988 29.5217 16.1988C29.4515 16.1988 29.2729 16.0394 29.2729 15.9756C29.2729 15.9246 29.1007 15.7524 29.0497 15.7524C28.9987 15.7524 28.699 15.4527 28.699 15.4016C28.699 15.3506 28.5268 15.1784 28.4757 15.1784C28.4247 15.1784 28.2525 15.0062 28.2525 14.9552C28.2525 14.9042 27.9528 14.6045 27.9018 14.6045C27.8507 14.6045 27.6786 14.4323 27.6786 14.3812C27.6786 14.3238 27.5064 14.158 27.4426 14.158C27.4107 14.158 27.3469 14.1006 27.2959 14.0305L27.2066 13.9029H26.9898H26.7793L26.5625 14.1261C26.4413 14.2473 26.3393 14.3749 26.3393 14.4131C26.3393 14.445 26.3074 14.4769 26.2755 14.4769C26.1862 14.4769 25.7653 14.8978 25.7653 14.9871C25.7653 15.019 25.7334 15.0509 25.7015 15.0509C25.6122 15.0509 25.3189 15.3442 25.3189 15.4335C25.3189 15.4654 25.287 15.4973 25.2551 15.4973C25.1658 15.4973 24.7449 15.9182 24.7449 16.0075C24.7449 16.0394 24.713 16.0713 24.6811 16.0713C24.6428 16.0713 24.5153 16.1733 24.3941 16.2945L24.1709 16.5113V16.7218V16.9386L24.2984 17.0279C24.3686 17.0789 24.426 17.1427 24.426 17.1746C24.426 17.2384 24.5918 17.4106 24.6492 17.4106C24.7002 17.4106 24.8724 17.5828 24.8724 17.6338C24.8724 17.6848 25.1722 17.9846 25.2232 17.9846C25.2742 17.9846 25.4464 18.1567 25.4464 18.2078C25.4464 18.2588 25.6186 18.431 25.6696 18.431C25.7206 18.431 26.0204 18.7307 26.0204 18.7817C26.0204 18.8328 26.1926 19.005 26.2436 19.005C26.2946 19.005 26.4668 19.1772 26.4668 19.2282C26.4668 19.2792 26.7666 19.5789 26.8176 19.5789C26.8686 19.5789 27.0408 19.7511 27.0408 19.8022C27.0408 19.8532 27.213 20.0254 27.264 20.0254C27.315 20.0254 27.6148 20.3251 27.6148 20.3761C27.6148 20.4272 27.787 20.5994 27.838 20.5994C27.889 20.5994 28.0612 20.7715 28.0612 20.8226C28.0612 20.8736 28.3609 21.1733 28.412 21.1733C28.463 21.1733 28.6352 21.3455 28.6352 21.3965C28.6352 21.4476 28.801 21.6198 28.852 21.6198C28.8712 21.6198 29.0433 21.7792 29.2411 21.9705L29.5918 22.3213H29.7257H29.8597L30.5931 21.6198C30.9949 21.2307 31.3456 20.9182 31.3839 20.9182C31.4158 20.9182 31.4413 20.8863 31.4413 20.8481C31.4413 20.7779 31.6007 20.5994 31.6645 20.5994C31.7155 20.5994 31.8877 20.4272 31.8877 20.3761C31.8877 20.3251 32.1875 20.0254 32.2385 20.0254C32.2895 20.0254 32.4617 19.8532 32.4617 19.8022C32.4617 19.7511 32.6339 19.5789 32.6849 19.5789C32.7041 19.5789 32.7933 19.5088 32.8826 19.4195C32.9719 19.3302 33.0676 19.2601 33.0995 19.2601C33.1377 19.2601 33.1632 19.2027 33.1632 19.1325C33.1632 19.0624 33.1951 19.005 33.2334 19.005C33.3036 19.005 33.4821 18.8455 33.4821 18.7817C33.4821 18.7307 33.7819 18.431 33.8329 18.431C33.8839 18.431 34.0561 18.2588 34.0561 18.2078C34.0561 18.1567 34.2283 17.9846 34.2793 17.9846C34.3303 17.9846 34.6301 17.6848 34.6301 17.6338C34.6301 17.5828 34.8023 17.4106 34.8533 17.4106C34.9043 17.4106 35.0765 17.2384 35.0765 17.1874C35.0765 17.1363 35.3763 16.8366 35.4273 16.8366C35.4783 16.8366 35.6505 16.6644 35.6505 16.6134C35.6505 16.5624 35.8227 16.3902 35.8737 16.3902C35.9247 16.3902 36.2245 16.0904 36.2245 16.0394C36.2245 15.9884 36.3967 15.8162 36.4477 15.8162C36.4987 15.8162 36.6709 15.644 36.6709 15.593C36.6709 15.542 36.9706 15.2422 37.0217 15.2422C37.0727 15.2422 37.2449 15.07 37.2449 15.019C37.2449 14.968 37.4171 14.7958 37.4681 14.7958C37.5191 14.7958 37.8189 14.496 37.8189 14.445C37.8189 14.394 37.9911 14.2218 38.0421 14.2218C38.0931 14.2218 38.2653 14.0496 38.2653 13.9986C38.2653 13.9476 38.565 13.6478 38.6161 13.6478C38.6671 13.6478 38.8393 13.4756 38.8393 13.4246C38.8393 13.3736 39.0115 13.2014 39.0625 13.2014C39.1135 13.2014 39.4132 12.9016 39.4132 12.8506C39.4132 12.7996 39.5854 12.6274 39.6365 12.6274C39.6875 12.6274 39.8597 12.4552 39.8597 12.4042C39.8597 12.3532 40.1594 12.0534 40.2104 12.0534C40.2615 12.0534 40.4337 11.8812 40.4337 11.8302C40.4337 11.7792 40.6058 11.607 40.6569 11.607C40.7079 11.607 41.0076 11.3073 41.0076 11.2562C41.0076 11.2052 41.1798 11.033 41.2308 11.033C41.2882 11.033 41.4541 10.8608 41.4541 10.7971C41.4541 10.7652 41.5115 10.7014 41.5816 10.6504C41.7092 10.5547 41.7602 10.2677 41.6454 10.2677C41.6135 10.2677 41.5816 10.2358 41.5816 10.2039C41.5816 10.1274 41.2946 9.82129 41.2308 9.82129C41.2053 9.82129 41.1479 9.78302 41.0969 9.732C41.0459 9.68098 41.0076 9.62358 41.0076 9.59807C41.0076 9.57894 40.9375 9.48966 40.8482 9.40675C40.7653 9.31746 40.676 9.24731 40.6569 9.24731C40.6058 9.24731 40.4337 9.07512 40.4337 9.02409C40.4337 8.97307 40.2615 8.80088 40.2104 8.80088C40.1594 8.80088 39.9872 8.62869 39.9872 8.57767C39.9872 8.55853 39.9171 8.46925 39.8278 8.38634C39.7449 8.29705 39.6556 8.2269 39.6365 8.2269C39.6109 8.2269 39.5536 8.18864 39.5025 8.13762C39.4515 8.08659 39.4132 8.0292 39.4132 8.00369C39.4132 7.93991 39.1071 7.65292 39.0306 7.65292C38.9987 7.65292 38.9668 7.62103 38.9668 7.58915C38.9668 7.47435 38.6798 7.52537 38.5842 7.65292Z"
        fill="#F97316"></path>
    <path
        d="M25.8929 0.0634975V0.127275H25.2551H24.6174V0.191049V0.254824H24.1072H23.597V0.318601V0.382376H23.2143H22.8317V0.478039V0.573702H22.5447H22.2577V0.637477V0.701254H21.9707H21.6837V0.765029C21.6837 0.796917 21.5817 0.828804 21.4605 0.828804H21.2373V0.924467V1.02013H20.9503H20.6633V1.08391C20.6633 1.1158 20.5613 1.14768 20.4401 1.14768C20.3189 1.14768 20.2169 1.17319 20.2169 1.21146C20.2169 1.24334 20.1467 1.27523 20.0574 1.27523C19.9681 1.27523 19.898 1.30074 19.898 1.33901C19.898 1.3709 19.8087 1.40278 19.7067 1.40278H19.509L19.4771 1.49845L19.4388 1.59411H19.2539C19.1518 1.59411 19.0689 1.61962 19.0689 1.65789C19.0689 1.68977 18.9988 1.72166 18.9095 1.72166C18.8202 1.72166 18.75 1.74717 18.75 1.78544C18.75 1.81732 18.6926 1.84921 18.6225 1.84921C18.5523 1.84921 18.4758 1.89386 18.4567 1.94488C18.4312 1.9959 18.361 2.04054 18.2972 2.04054C18.2335 2.04054 18.1761 2.06605 18.1761 2.10431C18.1761 2.1362 18.1059 2.16809 18.0166 2.16809C17.9273 2.16809 17.8572 2.1936 17.8572 2.23187C17.8572 2.26375 17.7998 2.29564 17.7296 2.29564C17.6595 2.29564 17.6021 2.32115 17.6021 2.35942C17.6021 2.3913 17.5319 2.42319 17.4426 2.42319H17.2832V2.51886V2.61452H17.1556C17.0855 2.61452 17.0281 2.64003 17.0281 2.67829C17.0281 2.71018 16.9579 2.74207 16.8687 2.74207C16.7794 2.74207 16.7092 2.76758 16.7092 2.80585C16.7092 2.83773 16.6518 2.86962 16.5817 2.86962C16.5115 2.86962 16.435 2.91426 16.4159 2.96528C16.3903 3.0163 16.3266 3.06095 16.2692 3.06095C16.2118 3.06095 16.1225 3.11835 16.0715 3.1885C16.0204 3.25865 15.9248 3.31605 15.861 3.31605C15.7335 3.31605 15.5613 3.45635 15.5613 3.56477C15.5613 3.60304 15.4975 3.63493 15.4146 3.63493C15.338 3.63493 15.2296 3.69233 15.1786 3.76248C15.1276 3.83263 15.0192 3.89003 14.9426 3.89003C14.8597 3.89003 14.796 3.92192 14.796 3.95381C14.796 4.06222 14.4962 4.33646 14.3814 4.33646C14.2602 4.33646 14.0944 4.48314 14.0944 4.58518C14.0944 4.62345 14.037 4.65533 13.9669 4.65533C13.8266 4.65533 13.5204 4.91681 13.5204 5.03799C13.5204 5.06987 13.4758 5.10176 13.4248 5.10176C13.3738 5.10176 13.3291 5.12727 13.3291 5.16554C13.3291 5.19743 13.2781 5.22931 13.2143 5.22931C13.1505 5.22931 13.0613 5.28671 13.0102 5.35687C12.9592 5.42702 12.8827 5.48442 12.838 5.48442C12.7934 5.48442 12.7551 5.5163 12.7551 5.54819C12.7551 5.63748 12.4618 5.93084 12.3725 5.93084C12.3406 5.93084 12.3087 5.96273 12.3087 5.99462C12.3087 6.07115 12.0217 6.37727 11.9579 6.37727C11.9069 6.37727 11.7347 6.54947 11.7347 6.60049C11.7347 6.66426 11.4286 6.95125 11.3521 6.95125C11.3202 6.95125 11.2883 6.98314 11.2883 7.01503C11.2883 7.10432 10.9949 7.39768 10.9056 7.39768C10.8738 7.39768 10.8419 7.43595 10.8419 7.48059C10.8419 7.52523 10.7845 7.60176 10.7143 7.65278C10.6442 7.7038 10.5868 7.79309 10.5868 7.85686C10.5868 7.92064 10.5613 7.97166 10.523 7.97166C10.4911 7.97166 10.4592 8.0163 10.4592 8.06733C10.4592 8.11835 10.4273 8.16299 10.3891 8.16299C10.287 8.16299 10.1403 8.3288 10.1403 8.44998C10.1403 8.55202 10 8.73697 9.91713 8.73697C9.83422 8.73697 9.56636 9.05584 9.56636 9.15151C9.56636 9.27268 9.41968 9.4385 9.31764 9.4385C9.27937 9.4385 9.24748 9.50227 9.24748 9.58518C9.24748 9.66171 9.19009 9.77013 9.11993 9.82115C9.04978 9.87217 8.99238 9.98059 8.99238 10.0571C8.99238 10.14 8.96049 10.2038 8.92223 10.2038C8.81381 10.2038 8.6735 10.376 8.6735 10.5035C8.6735 10.5673 8.61611 10.663 8.54595 10.714C8.4758 10.765 8.4184 10.8543 8.4184 10.9181V11.0329H8.32274H8.22708V11.1923C8.22708 11.2816 8.20157 11.3518 8.1633 11.3518C8.13141 11.3518 8.09952 11.4092 8.09952 11.4857C8.09952 11.626 7.95922 11.7982 7.8508 11.7982C7.81253 11.7982 7.78065 11.8556 7.78065 11.9257C7.78065 11.9959 7.75514 12.0533 7.71687 12.0533C7.68498 12.0533 7.6531 12.1553 7.6531 12.2765C7.6531 12.3977 7.62759 12.4997 7.58932 12.4997C7.55743 12.4997 7.52555 12.5444 7.52555 12.5954C7.52555 12.6464 7.50003 12.691 7.46177 12.691C7.42988 12.691 7.39799 12.7484 7.39799 12.8186V12.9462H7.30233H7.20667V13.1694C7.20667 13.2905 7.18116 13.3926 7.14289 13.3926C7.111 13.3926 7.07912 13.4627 7.07912 13.552C7.07912 13.6413 7.05361 13.7115 7.01534 13.7115C6.98345 13.7115 6.95157 13.7944 6.95157 13.8964V14.0814L6.8559 14.1196C6.80488 14.1388 6.76024 14.2153 6.76024 14.2854C6.76024 14.3556 6.73473 14.413 6.69646 14.413C6.66458 14.413 6.63269 14.515 6.63269 14.6362C6.63269 14.7574 6.60718 14.8594 6.56891 14.8594C6.53702 14.8594 6.50514 14.9615 6.50514 15.0826C6.50514 15.2038 6.47963 15.3058 6.44136 15.3058C6.40947 15.3058 6.37759 15.4079 6.37759 15.5291V15.7523H6.28192H6.18626V15.9436C6.18626 16.0456 6.16075 16.1349 6.12248 16.1349H6.05871V16.4538V16.7727H5.99493H5.93116V17.0597V17.3467H5.83549H5.73983V17.6974V18.0482H5.67606H5.61228H5.59634L5.48473 18.941L5.35718 20.1129V22.5826V25.0699L5.44646 25.1655C5.49748 25.2166 5.56126 25.2548 5.58677 25.2548C5.61866 25.2548 5.92478 24.9615 6.27555 24.5979C6.63269 24.2408 6.98983 23.89 7.07912 23.8135C7.1684 23.7433 7.31509 23.5903 7.41075 23.4819L7.58932 23.2778V21.8747V20.4717H7.6531H7.71687V19.8658V19.2599H7.78065H7.84442V18.8518V18.4436L7.94009 18.4053L8.03575 18.3734V18.112V17.8569H8.09952H8.1633V17.4742V17.0916H8.22708C8.26534 17.0916 8.29085 16.9895 8.29085 16.8683C8.29085 16.7472 8.32274 16.6451 8.35463 16.6451C8.39289 16.6451 8.4184 16.5431 8.4184 16.4219V16.1987H8.51407H8.60973V15.9755C8.60973 15.8543 8.64162 15.7523 8.6735 15.7523C8.71177 15.7523 8.73728 15.663 8.73728 15.5609C8.73728 15.4525 8.76917 15.3696 8.80105 15.3696C8.83932 15.3696 8.86483 15.2995 8.86483 15.2102V15.0507H8.96049H9.05616V14.8275C9.05616 14.7064 9.08804 14.6043 9.11993 14.6043C9.1582 14.6043 9.18371 14.5469 9.18371 14.4768C9.18371 14.4066 9.2156 14.3492 9.24748 14.3492C9.28575 14.3492 9.31126 14.2472 9.31126 14.126C9.31126 14.0048 9.34315 13.9028 9.37503 13.9028C9.4133 13.9028 9.43881 13.8326 9.43881 13.7433V13.5839H9.53447H9.63014V13.4564C9.63014 13.3862 9.66202 13.3288 9.69391 13.3288C9.73218 13.3288 9.75769 13.2586 9.75769 13.1694C9.75769 13.0801 9.78958 13.0099 9.82146 13.0099C9.85973 13.0099 9.88524 12.9398 9.88524 12.8505V12.691H9.9809H10.0766V12.5763C10.0766 12.5125 10.134 12.4232 10.2041 12.3722C10.2743 12.3212 10.3317 12.2127 10.3317 12.1362C10.3317 12.0533 10.3636 11.9895 10.3954 11.9895C10.4337 11.9895 10.4592 11.9194 10.4592 11.8301C10.4592 11.7408 10.4911 11.6706 10.5294 11.6706C10.6314 11.6706 10.7781 11.5048 10.7781 11.39C10.7781 11.3326 10.81 11.288 10.8419 11.288C10.8801 11.288 10.9056 11.2433 10.9056 11.1923C10.9056 11.1413 10.9503 11.0967 11.0013 11.0967H11.097V10.9691C11.097 10.899 11.1289 10.8416 11.1607 10.8416C11.199 10.8416 11.2245 10.8097 11.2245 10.7714C11.2245 10.6821 11.384 10.5227 11.4732 10.5227C11.5115 10.5227 11.5434 10.4653 11.5434 10.3951C11.5434 10.325 11.5753 10.2676 11.6072 10.2676C11.6454 10.2676 11.671 10.2293 11.671 10.1847C11.671 10.14 11.7284 10.0635 11.7985 10.0125C11.8687 9.96146 11.9261 9.85304 11.9261 9.77651C11.9261 9.6936 11.9579 9.62982 11.9898 9.62982C12.0281 9.62982 12.2577 9.43212 12.5 9.1834L12.9465 8.74334V8.60942C12.9465 8.53926 12.9784 8.48186 13.0102 8.48186C13.0995 8.48186 13.3929 8.1885 13.3929 8.09921C13.3929 8.06732 13.4312 8.03544 13.4758 8.03544C13.5204 8.03544 13.597 7.97804 13.648 7.90788C13.699 7.83773 13.7883 7.78034 13.8521 7.78034H13.9669V7.68467C13.9669 7.63365 13.9988 7.58901 14.037 7.58901C14.0753 7.58901 14.2857 7.40406 14.509 7.17447L14.9171 6.75993H15.0511C15.1212 6.75993 15.1786 6.72804 15.1786 6.69615C15.1786 6.60687 15.472 6.3135 15.5613 6.3135C15.5931 6.3135 15.625 6.28161 15.625 6.24972C15.625 6.21146 15.6824 6.18595 15.7526 6.18595C15.8227 6.18595 15.8801 6.15406 15.8801 6.11579C15.8801 6.02651 16.0396 5.86707 16.1289 5.86707C16.1671 5.86707 16.199 5.83518 16.199 5.80329C16.199 5.76503 16.2564 5.73952 16.3266 5.73952H16.4541V5.64386C16.4541 5.59283 16.4988 5.54819 16.5498 5.54819C16.6008 5.54819 16.6454 5.51631 16.6454 5.48442C16.6454 5.44615 16.7028 5.42064 16.773 5.42064C16.8431 5.42064 16.9005 5.38875 16.9005 5.35687C16.9005 5.3186 16.9707 5.29309 17.06 5.29309C17.1493 5.29309 17.2194 5.2612 17.2194 5.22294C17.2194 5.11452 17.3916 4.97421 17.5319 4.97421C17.6085 4.97421 17.6659 4.94233 17.6659 4.91044C17.6659 4.87217 17.7232 4.84666 17.7934 4.84666C17.8636 4.84666 17.921 4.81477 17.921 4.78289C17.921 4.74462 17.9911 4.71911 18.0804 4.71911H18.2398V4.62345V4.52778H18.3674C18.4375 4.52778 18.4949 4.4959 18.4949 4.46401C18.4949 4.42574 18.5651 4.40023 18.6544 4.40023C18.7437 4.40023 18.8138 4.36835 18.8138 4.33646C18.8138 4.29819 18.8712 4.27268 18.9414 4.27268H19.0689V4.17702V4.08135H19.2283C19.3176 4.08135 19.3878 4.04947 19.3878 4.01758C19.3878 3.97931 19.4579 3.95381 19.5472 3.95381C19.6365 3.95381 19.7067 3.92192 19.7067 3.89003C19.7067 3.85176 19.7641 3.82625 19.8342 3.82625C19.9044 3.82625 19.9618 3.79437 19.9618 3.76248C19.9618 3.72421 20.0638 3.6987 20.185 3.6987H20.4082V3.60304V3.50737H20.6314C20.7526 3.50737 20.8546 3.47549 20.8546 3.4436C20.8546 3.40533 20.912 3.37983 20.9822 3.37983C21.0523 3.37983 21.1097 3.34794 21.1097 3.31605C21.1097 3.27778 21.2118 3.25227 21.3329 3.25227H21.5562V3.15661V3.06095H21.7794C21.9005 3.06095 22.0026 3.02906 22.0026 2.99717V2.9334H22.2896H22.5766V2.86962V2.80585H22.8954H23.2143V2.74207V2.67829H23.5651H23.9159V2.58263V2.48697H24.4261H24.9363V2.42319V2.35942H25.6059H26.2755V2.29564V2.23187H27.6148H28.9541V2.29564V2.35942H29.6875H30.421V2.42319V2.48697H30.8674H31.3138V2.58263V2.67829H31.6646H32.0153V2.74207V2.80585H32.3023H32.5893V2.86962V2.9334H32.8763H33.1633V2.99717C33.1633 3.02906 33.2653 3.06095 33.3865 3.06095H33.6097V3.15661V3.25227H33.8329C33.9541 3.25227 34.0562 3.27778 34.0562 3.31605C34.0562 3.34794 34.1582 3.37983 34.2794 3.37983C34.4005 3.37983 34.5026 3.40533 34.5026 3.4436C34.5026 3.47549 34.6046 3.50737 34.7258 3.50737H34.949V3.60304V3.6987H35.1085C35.1977 3.6987 35.2679 3.72421 35.2679 3.76248C35.2679 3.79437 35.3253 3.82625 35.3954 3.82625C35.4656 3.82625 35.523 3.85176 35.523 3.89003C35.523 3.92192 35.625 3.95381 35.7462 3.95381C35.8674 3.95381 35.9694 3.97931 35.9694 4.01758C35.9694 4.04947 36.0396 4.08135 36.1289 4.08135H36.2883V4.17702V4.27268H36.4159C36.486 4.27268 36.5434 4.29819 36.5434 4.33646C36.5434 4.36835 36.6136 4.40023 36.7028 4.40023C36.7921 4.40023 36.8623 4.42574 36.8623 4.46401C36.8623 4.4959 36.9197 4.52778 36.9898 4.52778H37.1174V4.62345V4.71911H37.2641C37.3406 4.71911 37.449 4.77651 37.5 4.84666C37.5511 4.91681 37.6595 4.97421 37.736 4.97421C37.8189 4.97421 37.8827 4.99972 37.8827 5.03799C37.8827 5.06987 37.9401 5.10176 38.0102 5.10176H38.1378V5.19743C38.1378 5.24845 38.1824 5.29309 38.2335 5.29309C38.2845 5.29309 38.3291 5.3186 38.3291 5.35687C38.3291 5.38875 38.3738 5.42064 38.4312 5.42064C38.546 5.42064 38.7118 5.56732 38.7118 5.66936C38.7118 5.70763 38.7755 5.73952 38.8585 5.73952C38.935 5.73952 39.0434 5.79692 39.0944 5.86707C39.1454 5.93722 39.2539 5.99462 39.3304 5.99462C39.4133 5.99462 39.4771 6.02651 39.4771 6.0584C39.4771 6.16682 39.7768 6.44105 39.8916 6.44105C40.0128 6.44105 40.1786 6.58773 40.1786 6.68977C40.1786 6.72804 40.2105 6.75993 40.2424 6.75993C40.3317 6.75993 40.625 7.05329 40.625 7.14258C40.625 7.17447 40.6824 7.20636 40.759 7.20636C40.8355 7.20636 40.9758 7.28926 41.0715 7.39768C41.1671 7.49972 41.2819 7.58901 41.3202 7.58901C41.3585 7.58901 41.3903 7.6209 41.3903 7.65278C41.3903 7.74207 42.2577 8.60942 42.347 8.60942C42.3789 8.60942 42.4107 8.6413 42.4107 8.67957C42.4107 8.71783 42.5 8.83263 42.6021 8.92829C42.7105 9.02396 42.7934 9.16426 42.7934 9.24079C42.7934 9.31732 42.8253 9.37472 42.8572 9.37472C42.9465 9.37472 43.2398 9.66809 43.2398 9.75738C43.2398 9.78926 43.2845 9.82115 43.3355 9.82115H43.4312V9.9487C43.4312 10.0189 43.463 10.0763 43.4949 10.0763C43.5332 10.0763 43.5587 10.1081 43.5587 10.14C43.5587 10.2293 43.8521 10.5227 43.9414 10.5227C43.9732 10.5227 44.0051 10.5865 44.0051 10.6694C44.0051 10.7459 44.0625 10.8543 44.1327 10.9053C44.2028 10.9564 44.2602 11.0456 44.2602 11.103C44.2602 11.1604 44.3304 11.2625 44.4197 11.3263C44.509 11.39 44.5791 11.4984 44.5791 11.5558C44.5791 11.6196 44.611 11.6706 44.6429 11.6706C44.6812 11.6706 44.7067 11.7153 44.7067 11.7663C44.7067 11.8173 44.7386 11.862 44.7704 11.862C44.8087 11.862 44.8342 11.9194 44.8342 11.9895V12.1171H44.9299H45.0255V12.2765C45.0255 12.3658 45.0574 12.4359 45.0893 12.4359C45.1276 12.4359 45.1531 12.4933 45.1531 12.5635C45.1531 12.6337 45.185 12.691 45.2169 12.691C45.2551 12.691 45.2806 12.7612 45.2806 12.8505C45.2806 12.9398 45.3125 13.0099 45.3508 13.0099C45.4592 13.0099 45.5995 13.1821 45.5995 13.3224C45.5995 13.399 45.6314 13.4564 45.6633 13.4564C45.7016 13.4564 45.7271 13.5584 45.7271 13.6796V13.9028H45.8227H45.9184V14.0303C45.9184 14.1005 45.9503 14.1579 45.9822 14.1579C46.0204 14.1579 46.046 14.228 46.046 14.3173C46.046 14.4066 46.0778 14.4768 46.1097 14.4768C46.148 14.4768 46.1735 14.5342 46.1735 14.6043C46.1735 14.6745 46.2054 14.7319 46.2373 14.7319C46.2755 14.7319 46.3011 14.8339 46.3011 14.9551V15.1783H46.3967H46.4924V15.4015C46.4924 15.5227 46.5243 15.6247 46.5562 15.6247C46.5944 15.6247 46.6199 15.6949 46.6199 15.7842C46.6199 15.8734 46.6518 15.9436 46.6837 15.9436C46.722 15.9436 46.7475 16.0456 46.7475 16.1668V16.39H46.8431H46.9388V16.677V16.964H47.0026H47.0664V17.251V17.538H47.1301H47.1939V17.825V18.112H47.2577H47.3215V18.5584V19.0048H47.4171H47.5128V19.4513V19.8977H47.5766H47.6403V22.3212V24.7446H47.5766H47.5128V25.191V25.6375H47.4171H47.3215V26.0839V26.5303H47.2577H47.1939V26.8173V27.1043H47.1301H47.0664V27.3913V27.6783H47.0026C46.9707 27.6783 46.9388 27.7803 46.9388 27.9015V28.1247H46.8431H46.7475V28.4117V28.6987H46.6837C46.6518 28.6987 46.6199 28.7689 46.6199 28.8581C46.6199 28.9474 46.5944 29.0176 46.5562 29.0176C46.5243 29.0176 46.4924 29.1196 46.4924 29.2408V29.464H46.3967H46.3011V29.6872C46.3011 29.8084 46.2755 29.9104 46.2373 29.9104C46.2054 29.9104 46.1735 29.9678 46.1735 30.038C46.1735 30.1081 46.148 30.1655 46.1097 30.1655C46.0778 30.1655 46.046 30.2357 46.046 30.325C46.046 30.4143 46.0204 30.4844 45.9822 30.4844C45.9503 30.4844 45.9184 30.5865 45.9184 30.7076V30.9308H45.8227H45.7271V31.0584C45.7271 31.1285 45.7016 31.1859 45.6633 31.1859C45.6314 31.1859 45.5995 31.2433 45.5995 31.3199C45.5995 31.4602 45.4592 31.6324 45.3508 31.6324C45.3125 31.6324 45.2806 31.7025 45.2806 31.7918C45.2806 31.8811 45.2551 31.9513 45.2169 31.9513C45.185 31.9513 45.1531 32.0086 45.1531 32.0788C45.1531 32.149 45.1276 32.2064 45.0893 32.2064C45.0574 32.2064 45.0255 32.2765 45.0255 32.3658C45.0255 32.4551 44.9937 32.5252 44.9554 32.5252C44.847 32.5252 44.7067 32.6974 44.7067 32.8377C44.7067 32.9143 44.6812 32.9717 44.6429 32.9717C44.611 32.9717 44.5791 33.0163 44.5791 33.0737C44.5791 33.1885 44.4324 33.3543 44.3304 33.3543C44.2921 33.3543 44.2602 33.4181 44.2602 33.501C44.2602 33.5775 44.2028 33.6859 44.1327 33.737C44.0625 33.788 44.0051 33.8645 44.0051 33.9092C44.0051 33.9538 43.9605 33.9921 43.9095 33.9921H43.8138V34.1069C43.8138 34.1706 43.7564 34.2599 43.6863 34.3109C43.6161 34.362 43.5587 34.4385 43.5587 34.4831C43.5587 34.5278 43.5332 34.566 43.4949 34.566C43.463 34.566 43.4312 34.6234 43.4312 34.6936V34.8211H43.3355C43.2845 34.8211 43.2398 34.8658 43.2398 34.9168C43.2398 34.9678 43.2143 35.0125 43.1761 35.0125C43.1442 35.0125 43.1123 35.0571 43.1123 35.1081C43.1123 35.1655 42.9528 35.3632 42.7615 35.5546C42.5702 35.7395 42.4107 35.9245 42.4107 35.9627C42.4107 36.001 42.3789 36.0329 42.347 36.0329C42.2577 36.0329 41.3903 36.9002 41.3903 36.9895C41.3903 37.0214 41.3585 37.0533 41.3202 37.0533C41.2819 37.0533 41.1671 37.1362 41.0715 37.2446C40.9758 37.3467 40.8355 37.4359 40.759 37.4359C40.6824 37.4359 40.625 37.4678 40.625 37.4997C40.625 37.589 40.3317 37.8824 40.2424 37.8824C40.2105 37.8824 40.1786 37.9143 40.1786 37.9525C40.1786 38.0546 40.0128 38.2013 39.8916 38.2013C39.7768 38.2013 39.4771 38.4755 39.4771 38.5839C39.4771 38.6158 39.4133 38.6477 39.3304 38.6477C39.2539 38.6477 39.1454 38.7051 39.0944 38.7752C39.0434 38.8454 38.9541 38.9028 38.8967 38.9028C38.8393 38.9028 38.7373 38.9729 38.6735 39.0622C38.6097 39.1515 38.5013 39.2217 38.4439 39.2217C38.3801 39.2217 38.3291 39.2472 38.3291 39.2854C38.3291 39.3173 38.2845 39.3492 38.2335 39.3492C38.1824 39.3492 38.1378 39.3747 38.1378 39.413C38.1378 39.4449 38.0804 39.4768 38.0102 39.4768H37.8827V39.5724V39.6681H37.736C37.6595 39.6681 37.5511 39.7255 37.5 39.7956C37.449 39.8658 37.3406 39.9232 37.2641 39.9232H37.1174V40.0189V40.1145H36.9898C36.9197 40.1145 36.8623 40.14 36.8623 40.1783C36.8623 40.2102 36.7921 40.2421 36.7028 40.2421C36.6136 40.2421 36.5434 40.2676 36.5434 40.3058C36.5434 40.3377 36.486 40.3696 36.4159 40.3696H36.2883V40.4653V40.5609H36.1289C36.0396 40.5609 35.9694 40.5865 35.9694 40.6247C35.9694 40.6566 35.8674 40.6885 35.7462 40.6885C35.625 40.6885 35.523 40.714 35.523 40.7523C35.523 40.7842 35.4656 40.816 35.3954 40.816C35.3253 40.816 35.2679 40.8416 35.2679 40.8798C35.2679 40.9117 35.1977 40.9436 35.1085 40.9436H34.949V41.0393V41.1349H34.7258C34.6046 41.1349 34.5026 41.1604 34.5026 41.1987C34.5026 41.2306 34.4005 41.2625 34.2794 41.2625C34.1582 41.2625 34.0562 41.288 34.0562 41.3263C34.0562 41.3581 33.9541 41.39 33.8329 41.39H33.6097V41.4857V41.5814H33.3865C33.2653 41.5814 33.1633 41.6069 33.1633 41.6451V41.7089H32.8763H32.5893V41.7727V41.8365H32.3023H32.0153V41.9002V41.964H31.6646H31.3138V42.0597V42.1553H30.8674H30.421V42.2191V42.2829H29.6238H28.8266V42.3467V42.4104H27.6148H26.4031V42.3467V42.2829H25.6697H24.9363V42.2191V42.1553H24.4261H23.9159V42.0597V41.964H23.6289H23.3419V41.9002V41.8365H23.0549H22.7679V41.7727V41.7089H22.4809H22.1939V41.6451V41.5814H21.875H21.5562V41.4857V41.39H21.3648H21.1671L21.1289 41.4984C21.1097 41.5622 20.9949 41.7025 20.8738 41.8109C20.759 41.9257 20.6633 42.0469 20.6633 42.0852C20.6633 42.1234 20.6314 42.1553 20.5995 42.1553C20.523 42.1553 20.2169 42.4423 20.2169 42.5061C20.2169 42.5571 20.0447 42.7293 19.9937 42.7293C19.9681 42.7293 19.9107 42.7676 19.8597 42.8186C19.7641 42.9206 19.7449 43.163 19.8278 43.2905C19.8534 43.3352 20.0574 43.4053 20.2679 43.45C20.4847 43.4882 20.6633 43.5456 20.6633 43.5711C20.6633 43.603 20.7909 43.6222 20.9503 43.6222H21.2373V43.7178V43.8135H21.4605C21.5817 43.8135 21.6837 43.839 21.6837 43.8773V43.941H21.9707H22.2577V44.0048V44.0686H22.5447H22.8317V44.1643V44.2599H23.2143H23.597V44.3237V44.3875H24.1072H24.6174V44.4513V44.515H25.2551H25.8929V44.5788V44.6426H27.6148H29.3368V44.5788V44.515H30.0383H30.7398V44.4513V44.3875H31.1863H31.6327V44.3237V44.2599H32.0153H32.398V44.1643V44.0686H32.685H32.972V44.0048V43.941H33.259H33.546V43.8773V43.8135H33.8329H34.1199V43.7178V43.6222H34.3431C34.4643 43.6222 34.5664 43.5903 34.5664 43.5584C34.5664 43.5201 34.6684 43.4946 34.7896 43.4946C34.9107 43.4946 35.0128 43.4627 35.0128 43.4308C35.0128 43.3926 35.1148 43.3671 35.236 43.3671C35.3572 43.3671 35.4592 43.3352 35.4592 43.3033C35.4592 43.265 35.5166 43.2395 35.5868 43.2395H35.7143V43.1439V43.0482H35.9375C36.0587 43.0482 36.1607 43.0163 36.1607 42.9844C36.1607 42.9461 36.2309 42.9206 36.3202 42.9206C36.4095 42.9206 36.4796 42.8888 36.4796 42.8569C36.4796 42.8186 36.5689 42.7931 36.671 42.7931H36.8687L36.9005 42.6974C36.9261 42.6464 36.9962 42.6018 37.06 42.6018C37.1238 42.6018 37.1812 42.5699 37.1812 42.538C37.1812 42.4997 37.2513 42.4742 37.3406 42.4742C37.4299 42.4742 37.5 42.4423 37.5 42.4104C37.5 42.3722 37.5574 42.3467 37.6276 42.3467C37.6977 42.3467 37.7551 42.3148 37.7551 42.2829C37.7551 42.2446 37.8253 42.2191 37.9146 42.2191H38.074V42.1234V42.0278H38.2016C38.2717 42.0278 38.3291 41.9959 38.3291 41.964C38.3291 41.9257 38.3738 41.9002 38.4248 41.9002C38.4758 41.9002 38.5204 41.8683 38.5204 41.8365C38.5204 41.7982 38.5778 41.7727 38.648 41.7727H38.7755V41.677V41.5814H38.935C39.0243 41.5814 39.0944 41.5495 39.0944 41.5176C39.0944 41.4793 39.1518 41.4538 39.222 41.4538C39.2921 41.4538 39.3495 41.4219 39.3495 41.39C39.3495 41.3518 39.3942 41.3263 39.4452 41.3263C39.4962 41.3263 39.5408 41.2944 39.5408 41.2625C39.5408 41.2242 39.5982 41.1987 39.6684 41.1987H39.796V41.103C39.796 41.052 39.8406 41.0074 39.8916 41.0074C39.9426 41.0074 39.9873 40.9755 39.9873 40.9436C39.9873 40.9053 40.0319 40.8798 40.0893 40.8798C40.2041 40.8798 40.3699 40.7331 40.3699 40.6311C40.3699 40.5928 40.4337 40.5609 40.5166 40.5609C40.5931 40.5609 40.7016 40.5035 40.7526 40.4334C40.8036 40.3632 40.8801 40.3058 40.9248 40.3058C40.9694 40.3058 41.0077 40.274 41.0077 40.2421C41.0077 40.2038 41.0651 40.1783 41.1352 40.1783C41.2054 40.1783 41.2628 40.1464 41.2628 40.1081C41.2628 40.038 41.4222 39.8594 41.486 39.8594C41.5498 39.8594 41.7092 39.6808 41.7092 39.6107C41.7092 39.5724 41.7666 39.5405 41.8368 39.5405C41.9707 39.5405 42.4107 39.1515 42.4107 39.0303C42.4107 38.9984 42.4426 38.9666 42.4745 38.9666C42.5638 38.9666 42.8572 38.6732 42.8572 38.5839C42.8572 38.552 42.9018 38.5201 42.9528 38.5201C43.0039 38.5201 43.0485 38.4882 43.0485 38.4564C43.0485 38.4181 43.0931 38.3926 43.1505 38.3926C43.2653 38.3926 43.4312 38.2459 43.4312 38.1439C43.4312 38.1056 43.463 38.0737 43.5013 38.0737C43.6034 38.0737 43.75 37.9079 43.75 37.7931C43.75 37.7357 43.7819 37.691 43.8138 37.691C43.8521 37.691 43.8776 37.6464 43.8776 37.5954C43.8776 37.5444 43.9095 37.4997 43.9414 37.4997C44.0306 37.4997 44.324 37.2064 44.324 37.1171C44.324 37.0852 44.3559 37.0533 44.3878 37.0533C44.509 37.0533 44.898 36.6132 44.898 36.4793C44.898 36.4092 44.9299 36.3518 44.9681 36.3518C45.0383 36.3518 45.2169 36.1923 45.2169 36.1285C45.2169 36.0648 45.3954 35.9053 45.4656 35.9053C45.5039 35.9053 45.5357 35.8479 45.5357 35.7778C45.5357 35.7076 45.5676 35.6502 45.5995 35.6502C45.6378 35.6502 45.6633 35.6056 45.6633 35.5546C45.6633 35.5035 45.6952 35.4589 45.7271 35.4589C45.7653 35.4589 45.7908 35.4015 45.7908 35.3314C45.7908 35.2612 45.8227 35.2038 45.8546 35.2038C45.8929 35.2038 45.9184 35.1592 45.9184 35.1081C45.9184 35.0571 45.963 35.0125 46.0141 35.0125H46.1097V34.8977C46.1097 34.8339 46.1671 34.7446 46.2373 34.6936C46.3074 34.6426 46.3648 34.5342 46.3648 34.4576C46.3648 34.3747 46.3967 34.3109 46.435 34.3109C46.5434 34.3109 46.6837 34.1388 46.6837 34.0112C46.6837 33.9474 46.7411 33.8518 46.8113 33.8007C46.8814 33.7497 46.9388 33.6413 46.9388 33.5648V33.4181H47.0345H47.1301V33.2905C47.1301 33.2204 47.162 33.163 47.1939 33.163C47.2322 33.163 47.2577 33.0928 47.2577 33.0035C47.2577 32.9143 47.2896 32.8441 47.3215 32.8441C47.3597 32.8441 47.3852 32.7867 47.3852 32.7229C47.3852 32.6592 47.4299 32.589 47.4809 32.5635C47.5319 32.5444 47.5766 32.4678 47.5766 32.3977C47.5766 32.3275 47.6085 32.2701 47.6403 32.2701C47.6786 32.2701 47.7041 32.2 47.7041 32.1107C47.7041 32.0214 47.736 31.9513 47.7679 31.9513C47.8062 31.9513 47.8317 31.8939 47.8317 31.8237C47.8317 31.7535 47.8636 31.6961 47.8954 31.6961C47.9337 31.6961 47.9592 31.626 47.9592 31.5367V31.3773H48.0549H48.1505V31.2497C48.1505 31.1796 48.1824 31.1222 48.2143 31.1222C48.2526 31.1222 48.2781 31.0201 48.2781 30.899C48.2781 30.7778 48.31 30.6757 48.3419 30.6757C48.3801 30.6757 48.4056 30.6056 48.4056 30.5163V30.3569H48.5013H48.597V30.1337C48.597 30.0125 48.6289 29.9104 48.6607 29.9104C48.699 29.9104 48.7245 29.8211 48.7245 29.7191C48.7245 29.6107 48.7564 29.5278 48.7883 29.5278C48.8266 29.5278 48.8521 29.4257 48.8521 29.3046C48.8521 29.1834 48.884 29.0814 48.9158 29.0814C48.9541 29.0814 48.9796 28.9793 48.9796 28.8581V28.6349H49.0753H49.171V28.3479V28.0609H49.2347C49.273 28.0609 49.2985 27.9589 49.2985 27.8377C49.2985 27.7166 49.3304 27.6145 49.3623 27.6145H49.4261V27.2319V26.8492H49.5217H49.6174V26.4984V26.1477H49.6812H49.7449V25.6375V25.1273H49.8087H49.8725V24.2344V23.3416H49.9363H50V22.3212V21.3007H49.9363H49.8725V20.4079V19.515H49.8087H49.7449V19.0048V18.4946H49.6812H49.6174V18.1439V17.7931H49.5217H49.4261V17.4104V17.0278H49.3623C49.3304 17.0278 49.2985 16.9257 49.2985 16.8046C49.2985 16.6834 49.273 16.5814 49.2347 16.5814H49.171V16.2944V16.0074H49.0753H48.9796V15.7842C48.9796 15.663 48.9541 15.5609 48.9158 15.5609C48.884 15.5609 48.8521 15.4589 48.8521 15.3377C48.8521 15.2166 48.8266 15.1145 48.7883 15.1145C48.7564 15.1145 48.7245 15.0252 48.7245 14.9232C48.7245 14.8148 48.699 14.7319 48.6607 14.7319C48.6289 14.7319 48.597 14.6298 48.597 14.5086V14.2854H48.5013H48.4056V14.126C48.4056 14.0367 48.3801 13.9666 48.3419 13.9666C48.31 13.9666 48.2781 13.8645 48.2781 13.7433C48.2781 13.6222 48.2526 13.5201 48.2143 13.5201C48.1824 13.5201 48.1505 13.4627 48.1505 13.3926V13.265H48.0549H47.9592V13.1056C47.9592 13.0163 47.9337 12.9462 47.8954 12.9462C47.8636 12.9462 47.8317 12.8888 47.8317 12.8186C47.8317 12.7484 47.8062 12.691 47.7679 12.691C47.736 12.691 47.7041 12.6018 47.7041 12.4933V12.2893L47.5447 12.1426C47.4554 12.0597 47.3852 11.9513 47.3852 11.8939C47.3852 11.8428 47.3597 11.7982 47.3215 11.7982C47.2896 11.7982 47.2577 11.728 47.2577 11.6388C47.2577 11.5495 47.2322 11.4793 47.1939 11.4793C47.162 11.4793 47.1301 11.4219 47.1301 11.3518V11.2242H47.0345H46.9388V11.0775C46.9388 11.001 46.8814 10.8926 46.8113 10.8416C46.7411 10.7905 46.6837 10.6949 46.6837 10.6311C46.6837 10.5035 46.5434 10.3314 46.435 10.3314C46.3967 10.3314 46.3648 10.2676 46.3648 10.1847C46.3648 10.1081 46.3074 9.99972 46.2373 9.9487C46.1671 9.89768 46.1097 9.8084 46.1097 9.74462V9.62982H46.0141H45.9184V9.48314C45.9184 9.40661 45.861 9.29819 45.7908 9.24717C45.7207 9.19615 45.6633 9.11962 45.6633 9.07498C45.6633 9.03033 45.6378 8.99207 45.5995 8.99207C45.5676 8.99207 45.5357 8.93467 45.5357 8.86452C45.5357 8.79436 45.5039 8.73697 45.4656 8.73697C45.3954 8.73697 45.2169 8.57753 45.2169 8.51375C45.2169 8.46273 45.0447 8.29054 44.9937 8.29054C44.9171 8.29054 44.7704 8.10559 44.7704 8.00355C44.7704 7.88875 44.4962 7.58901 44.3878 7.58901C44.3559 7.58901 44.324 7.55712 44.324 7.52523C44.324 7.43595 44.0306 7.14258 43.9414 7.14258C43.9095 7.14258 43.8776 7.10431 43.8776 7.05967C43.8776 7.01503 43.8202 6.9385 43.75 6.88748C43.6799 6.83646 43.6225 6.72804 43.6225 6.65151C43.6225 6.5686 43.5906 6.50482 43.5523 6.50482C43.5141 6.50482 43.3993 6.41554 43.3036 6.3135C43.2079 6.20508 43.0676 6.12217 42.9911 6.12217C42.9146 6.12217 42.8572 6.09028 42.8572 6.0584C42.8572 5.96911 42.5638 5.67574 42.4745 5.67574C42.4426 5.67574 42.4107 5.64385 42.4107 5.61197C42.4107 5.49079 41.9707 5.10176 41.8368 5.10176C41.7666 5.10176 41.7092 5.06988 41.7092 5.03161C41.7092 4.94233 41.5498 4.78289 41.4605 4.78289C41.4222 4.78289 41.3903 4.751 41.3903 4.71911C41.3903 4.68085 41.3329 4.65533 41.2628 4.65533C41.1926 4.65533 41.1352 4.62345 41.1352 4.58518C41.1352 4.50865 40.9758 4.33646 40.8993 4.33646C40.8674 4.33646 40.8036 4.27906 40.7526 4.20891C40.7016 4.13875 40.5931 4.08135 40.5166 4.08135C40.4337 4.08135 40.3699 4.04947 40.3699 4.0112C40.3699 3.90916 40.2041 3.76248 40.0893 3.76248C40.0319 3.76248 39.9873 3.73059 39.9873 3.6987C39.9873 3.66044 39.9426 3.63493 39.8916 3.63493C39.8406 3.63493 39.796 3.59028 39.796 3.53926V3.4436H39.6684C39.5982 3.4436 39.5408 3.41171 39.5408 3.37983C39.5408 3.34156 39.4962 3.31605 39.4452 3.31605C39.3942 3.31605 39.3495 3.28416 39.3495 3.25227C39.3495 3.21401 39.2921 3.1885 39.222 3.1885C39.1518 3.1885 39.0944 3.15661 39.0944 3.12472C39.0944 3.08646 39.0243 3.06095 38.935 3.06095H38.7755V2.96528V2.86962H38.648C38.5778 2.86962 38.5204 2.83773 38.5204 2.80585C38.5204 2.76758 38.4758 2.74207 38.4248 2.74207C38.3738 2.74207 38.3291 2.71018 38.3291 2.67829C38.3291 2.64003 38.2717 2.61452 38.2016 2.61452H38.074V2.51886V2.42319H37.9146C37.8253 2.42319 37.7551 2.3913 37.7551 2.35942C37.7551 2.32115 37.6977 2.29564 37.6276 2.29564C37.5574 2.29564 37.5 2.26375 37.5 2.23187C37.5 2.1936 37.4299 2.16809 37.3406 2.16809C37.2513 2.16809 37.1812 2.1362 37.1812 2.10431C37.1812 2.06605 37.1238 2.04054 37.0536 2.04054H36.9261V1.94488V1.84921H36.7028C36.5817 1.84921 36.4796 1.81732 36.4796 1.78544C36.4796 1.74717 36.4095 1.72166 36.3202 1.72166C36.2309 1.72166 36.1607 1.68977 36.1607 1.65789C36.1607 1.61962 36.1033 1.59411 36.0396 1.59411C35.9758 1.59411 35.9056 1.54947 35.8801 1.49845L35.8482 1.40278H35.6505C35.5485 1.40278 35.4592 1.3709 35.4592 1.33901C35.4592 1.30074 35.3572 1.27523 35.236 1.27523C35.1148 1.27523 35.0128 1.24334 35.0128 1.21146C35.0128 1.17319 34.9107 1.14768 34.7896 1.14768C34.6684 1.14768 34.5664 1.1158 34.5664 1.08391C34.5664 1.04564 34.4643 1.02013 34.3431 1.02013H34.1199V0.924467V0.828804H33.8329H33.546V0.765029C33.546 0.726764 33.4439 0.701254 33.3227 0.701254C33.2016 0.701254 33.0995 0.669365 33.0995 0.637477V0.573702H32.7551H32.4107L32.3725 0.478039L32.3406 0.382376H31.9835H31.6327V0.318601V0.254824H31.1863H30.7398V0.191049V0.127275H30.0383H29.3368V0.0634975V-0.000277061H27.6148H25.8929V0.0634975Z"
        fill="#0F172A"></path>
    <path
        d="M26.4668 4.84642V4.9102H25.7334H25V4.97397V5.03775H24.5536H24.1071V5.10153V5.1653H23.8202H23.5332V5.26096V5.35663H23.2462H22.9592V5.4204C22.9592 5.45229 22.8571 5.48418 22.736 5.48418C22.6148 5.48418 22.5128 5.50969 22.5128 5.54795C22.5128 5.57984 22.4107 5.61173 22.2895 5.61173H22.0663V5.70739V5.80305H21.8431C21.7219 5.80305 21.6199 5.82857 21.6199 5.86683C21.6199 5.89872 21.5179 5.93061 21.3967 5.93061C21.2755 5.93061 21.1735 5.95611 21.1735 5.99438C21.1735 6.02627 21.1161 6.05816 21.0459 6.05816H20.9184V6.15382V6.24948H20.7589C20.6696 6.24948 20.5995 6.27499 20.5995 6.31326C20.5995 6.34515 20.5421 6.37703 20.4719 6.37703C20.4018 6.37703 20.3444 6.40255 20.3444 6.44081C20.3444 6.4727 20.2551 6.50459 20.1467 6.50459H19.9426L19.7959 6.66402C19.713 6.75331 19.6046 6.82346 19.5472 6.82346C19.4962 6.82346 19.4515 6.84897 19.4515 6.88724C19.4515 6.91913 19.3814 6.95101 19.2921 6.95101C19.2028 6.95101 19.1327 6.97652 19.1327 7.01479C19.1327 7.04668 19.0753 7.07856 19.0051 7.07856H18.8776V7.17423C18.8776 7.22525 18.8329 7.26989 18.7819 7.26989C18.7309 7.26989 18.6862 7.2954 18.6862 7.33367C18.6862 7.36555 18.6288 7.39744 18.5587 7.39744C18.4885 7.39744 18.4311 7.42295 18.4311 7.46122C18.4311 7.49311 18.3737 7.52499 18.2972 7.52499C18.176 7.52499 17.9847 7.65892 17.9847 7.74821C17.9847 7.83112 17.7997 7.97142 17.6977 7.97142C17.5765 7.97142 17.4107 8.1181 17.4107 8.22014C17.4107 8.25841 17.3469 8.2903 17.264 8.2903C17.1875 8.2903 17.0791 8.3477 17.0281 8.41785C16.977 8.488 16.9005 8.5454 16.8559 8.5454C16.8112 8.5454 16.773 8.57729 16.773 8.60918C16.773 8.69846 16.352 9.11938 16.2628 9.11938C16.2309 9.11938 16.199 9.16402 16.199 9.21505V9.31071H16.0714C16.0013 9.31071 15.9439 9.33622 15.9439 9.37448C15.9439 9.40637 15.912 9.43826 15.8737 9.43826C15.8036 9.43826 15.625 9.5977 15.625 9.66147C15.625 9.71249 15.3253 10.0122 15.2742 10.0122C15.2232 10.0122 15.051 10.1844 15.051 10.2355C15.051 10.2865 14.8788 10.4587 14.8278 10.4587C14.7449 10.4587 14.6046 10.6436 14.6046 10.7457C14.6046 10.8668 14.4579 11.0326 14.3559 11.0326C14.3176 11.0326 14.2857 11.0709 14.2857 11.1156C14.2857 11.1602 14.2283 11.2367 14.1582 11.2877C14.088 11.3388 14.0306 11.4281 14.0306 11.4918C14.0306 11.5556 14.0051 11.6066 13.9668 11.6066C13.9349 11.6066 13.9031 11.6513 13.9031 11.7023C13.9031 11.7533 13.8712 11.798 13.8329 11.798C13.7309 11.798 13.5842 11.9638 13.5842 12.0849C13.5842 12.2061 13.4375 12.3719 13.3355 12.3719C13.2972 12.3719 13.2653 12.4293 13.2653 12.4995C13.2653 12.5696 13.2398 12.627 13.2015 12.627C13.1696 12.627 13.1378 12.6717 13.1378 12.7227C13.1378 12.7737 13.1122 12.8184 13.074 12.8184C13.0421 12.8184 13.0102 12.8758 13.0102 12.9459C13.0102 13.0161 12.9847 13.0735 12.9464 13.0735C12.9145 13.0735 12.8827 13.1436 12.8827 13.2329C12.8827 13.3222 12.8508 13.3923 12.8125 13.3923C12.6913 13.3923 12.5638 13.5709 12.5638 13.7431C12.5638 13.9153 12.4362 14.0939 12.3151 14.0939C12.2768 14.0939 12.2449 14.164 12.2449 14.2533C12.2449 14.3426 12.2194 14.4127 12.1811 14.4127C12.1492 14.4127 12.1173 14.4829 12.1173 14.5722C12.1173 14.6615 12.0918 14.7316 12.0536 14.7316C12.0217 14.7316 11.9898 14.8337 11.9898 14.9548V15.1781H11.8941H11.7985V15.3056C11.7985 15.3758 11.773 15.4332 11.7347 15.4332C11.7028 15.4332 11.6709 15.5352 11.6709 15.6564C11.6709 15.7775 11.6454 15.8796 11.6071 15.8796C11.5753 15.8796 11.5434 15.9816 11.5434 16.1028C11.5434 16.224 11.5179 16.326 11.4796 16.326C11.4477 16.326 11.4158 16.3834 11.4158 16.4536V16.5811L11.3361 17.1471C11.3361 17.026 11.3042 17.1471 11.3361 17.1471C11.3361 17.2683 11.0714 17.6653 11.0332 17.6653H10.9694V18.0161V18.3668H10.8737H10.7781V18.7176V19.0684H10.7143H10.6505V19.6742V20.2801H10.5804H10.5166L10.5293 21.2112L10.5421 22.1423L5.35076 27.2444L0.159439 32.3464L0.140306 32.5314C0.127551 32.6334 0.0956633 32.7163 0.057398 32.7163H0V33.386V34.0556H0.0637755C0.102041 34.0556 0.127551 34.1194 0.127551 34.2023C0.127551 34.2788 0.184949 34.3872 0.255102 34.4383C0.325255 34.4893 0.382653 34.5658 0.382653 34.6105C0.382653 34.6551 0.420918 34.6934 0.465561 34.6934C0.510204 34.6934 0.586735 34.7508 0.637755 34.8209C0.688775 34.8911 0.797194 34.9485 0.873724 34.9485C0.956633 34.9485 1.02041 34.9803 1.02041 35.0186C1.02041 35.0569 1.05867 35.127 1.10969 35.1781L1.20536 35.2673H1.93878H2.67857V35.2036C2.67857 35.1653 2.73597 35.1398 2.80612 35.1398H2.93367V35.0441V34.9485H3.06122H3.19515L3.57143 34.5658C3.78189 34.3553 3.95408 34.1576 3.95408 34.1194C3.95408 34.0875 3.98597 34.0556 4.01786 34.0556C4.05612 34.0556 4.28571 33.8579 4.52806 33.6092C4.77679 33.3668 4.97449 33.1372 4.97449 33.099C4.97449 33.0671 5.00638 33.0352 5.03826 33.0352C5.12755 33.0352 5.42092 32.7418 5.42092 32.6525C5.42092 32.6207 5.45281 32.5888 5.48469 32.5888C5.52296 32.5888 5.75255 32.3911 5.9949 32.1423C6.24362 31.9 6.44133 31.6704 6.44133 31.6321C6.44133 31.6002 6.47321 31.5684 6.5051 31.5684C6.54337 31.5684 6.77296 31.3707 7.01531 31.1219C7.26403 30.8796 7.46173 30.65 7.46173 30.6117C7.46173 30.5798 7.49362 30.548 7.52551 30.548C7.56378 30.548 7.66582 30.4778 7.74872 30.3885C7.83801 30.3056 7.90816 30.2036 7.90816 30.1653C7.90816 30.1334 7.94005 30.1015 7.97194 30.1015C8.0102 30.1015 8.2398 29.9038 8.48214 29.6551C8.73087 29.4127 8.92857 29.1832 8.92857 29.1449C8.92857 29.113 8.96046 29.0811 8.99872 29.0811C9.03699 29.0811 9.15179 28.9918 9.24745 28.8898C9.34311 28.7814 9.44196 28.6092 9.51849 28.6092L9.55995 28.5789L9.63807 28.555L9.69388 28.5263L10.0829 28.488C10.2997 28.4689 10.6378 28.4689 10.8355 28.488L11.1926 28.5263L11.2436 28.6092C11.2691 28.6602 11.352 28.6985 11.4158 28.6985C11.486 28.6985 11.5434 28.724 11.5434 28.7622C11.5434 28.7941 11.6008 28.826 11.6709 28.826C11.7411 28.826 11.7985 28.8515 11.7985 28.8898C11.7985 28.9217 11.8431 28.9536 11.8941 28.9536H11.9898V29.0811C11.9898 29.215 12.2513 29.5275 12.3597 29.5275C12.4362 29.5275 12.5064 30.5033 12.4554 30.9115L12.4171 31.2495H12.3342H12.2449V31.377C12.2449 31.4982 11.9898 31.8235 11.8941 31.8235C11.8431 31.8235 11.6709 31.9957 11.6709 32.0467C11.6709 32.1105 11.3648 32.3974 11.2883 32.3974C11.2564 32.3974 11.2245 32.4293 11.2245 32.4612C11.2245 32.5505 10.9311 32.8439 10.8418 32.8439C10.8099 32.8439 10.7781 32.8758 10.7781 32.9076C10.7781 32.9969 10.3571 33.4178 10.2679 33.4178C10.236 33.4178 10.2041 33.4497 10.2041 33.4816C10.2041 33.5709 9.91071 33.8643 9.82143 33.8643C9.78954 33.8643 9.75765 33.8962 9.75765 33.9281C9.75765 34.0046 9.47066 34.3107 9.40689 34.3107C9.35587 34.3107 9.18367 34.4829 9.18367 34.5339C9.18367 34.5977 8.87755 34.8847 8.80102 34.8847C8.76913 34.8847 8.73724 34.9166 8.73724 34.9485C8.73724 35.0377 8.44388 35.3311 8.35459 35.3311C8.3227 35.3311 8.29082 35.363 8.29082 35.3949C8.29082 35.4714 8.00383 35.7775 7.94005 35.7775C7.88903 35.7775 7.71684 35.9497 7.71684 36.0008C7.71684 36.0645 7.41071 36.3515 7.33418 36.3515C7.3023 36.3515 7.27041 36.3834 7.27041 36.4153C7.27041 36.4918 6.98342 36.798 6.91964 36.798C6.86862 36.798 6.69643 36.9701 6.69643 37.0212C6.69643 37.0849 6.39031 37.3719 6.31377 37.3719C6.28189 37.3719 6.25 37.4166 6.25 37.4676C6.25 37.5186 6.22449 37.5633 6.18622 37.5633C6.15434 37.5633 6.12245 37.6207 6.12245 37.6908C6.12245 37.761 6.09694 37.8184 6.05867 37.8184C6.02679 37.8184 5.9949 37.8885 5.9949 37.9778C5.9949 38.0671 5.96301 38.1372 5.92474 38.1372C5.88648 38.1372 5.81633 38.1755 5.76531 38.2265L5.67602 38.3222V39.0556V39.7954H5.7398C5.77806 39.7954 5.80357 39.84 5.80357 39.8974C5.80357 40.0122 6.26913 40.4969 6.37755 40.4969C6.41582 40.4969 6.44133 40.5288 6.44133 40.5671C6.44133 40.6627 6.60714 40.8158 6.71556 40.8158C6.77296 40.8158 6.82398 40.8477 6.83673 40.8796L6.85587 40.9434L7.58929 40.9497H8.3227L8.34184 40.886C8.35459 40.8477 8.42474 40.8158 8.4949 40.8158H8.62245L10.0319 39.4319C10.8099 38.6666 12.0217 37.474 12.7232 36.7852C13.4184 36.09 14.0051 35.5224 14.0179 35.5224C14.0306 35.5224 14.1645 35.3949 14.324 35.2355L14.6046 34.9485H14.7959C14.898 34.9485 14.9872 34.9166 14.9872 34.8847V34.8209H15.6888H16.3903V34.8847C16.3903 34.9166 16.4477 34.9485 16.5179 34.9485C16.588 34.9485 16.6454 34.9803 16.6454 35.0186C16.6454 35.0888 16.8048 35.2673 16.8686 35.2673C16.9324 35.2673 17.2194 35.5735 17.2194 35.65C17.2194 35.6819 17.264 35.7138 17.3151 35.7138H17.4107V35.8349C17.4107 35.9051 17.4426 35.9689 17.4872 35.9816L17.5574 36.0071V36.7661L17.551 37.525L17.4872 37.5505C17.449 37.5633 17.4298 37.6079 17.449 37.6525L17.4809 37.7355L15.8992 39.349L14.324 40.9561L14.2411 41.1921C14.1964 41.3196 14.1582 41.6449 14.1582 41.9127V42.4102H14.2219C14.2602 42.4102 14.2857 42.4803 14.2857 42.5696V42.7291H14.3814H14.477V42.8566C14.477 42.9268 14.5089 42.9842 14.5408 42.9842C14.5791 42.9842 14.6046 43.0161 14.6046 43.0543C14.6046 43.1245 14.764 43.3031 14.8278 43.3031C14.8788 43.3031 15.051 43.4752 15.051 43.5263C15.051 43.6028 15.3571 43.8388 15.5612 43.9153C15.6122 43.9344 15.7079 43.9791 15.7653 44.011C15.8291 44.0428 16.0651 44.0684 16.2946 44.0684H16.7092V44.0046C16.7092 43.9663 16.773 43.9408 16.8559 43.9408H16.9962L17.9401 43.0224C18.4566 42.5186 18.8776 42.0722 18.8776 42.0339C18.8776 41.9957 18.9094 41.9638 18.9413 41.9638C19.0306 41.9638 19.324 41.6704 19.324 41.5811C19.324 41.5492 19.3559 41.5173 19.3878 41.5173C19.477 41.5173 20.3444 40.65 20.3444 40.5607C20.3444 40.5288 20.3763 40.4969 20.4145 40.4969C20.4528 40.4969 20.5676 40.4076 20.6633 40.3056C20.7589 40.1972 20.8737 40.1143 20.912 40.1143C20.9503 40.1143 20.9821 40.0824 20.9821 40.0505C20.9821 40.0122 21.1671 39.8018 21.3967 39.5722C21.6263 39.349 21.8112 39.1385 21.8112 39.1002C21.8112 39.062 21.8431 39.0301 21.8814 39.0301C21.9133 39.0301 22.0727 38.9025 22.2321 38.7431L22.5128 38.4561H23.0804H23.648L23.6862 38.5518L23.7181 38.6474H24.0115H24.2985V38.7112V38.775H24.713H25.1276V38.8388V38.9025H25.861H26.5944V38.9663V39.0301H27.5829H28.5714V38.9663V38.9025H29.3048H30.0383V38.8388V38.775H30.4847H30.9311V38.7112V38.6474H31.2819H31.6327V38.5518V38.4561H31.9196H32.2066V38.3923C32.2066 38.3541 32.3087 38.3286 32.4298 38.3286C32.551 38.3286 32.6531 38.2967 32.6531 38.2648C32.6531 38.2265 32.7551 38.201 32.8763 38.201H33.0995V38.1053V38.0097H33.3227C33.4439 38.0097 33.5459 37.9778 33.5459 37.9459C33.5459 37.9076 33.648 37.8821 33.7691 37.8821C33.8903 37.8821 33.9923 37.8502 33.9923 37.8184C33.9923 37.7801 34.0497 37.7546 34.1199 37.7546C34.19 37.7546 34.2474 37.7227 34.2474 37.6908C34.2474 37.6525 34.3176 37.627 34.4069 37.627H34.5663V37.5314V37.4357H34.7895C34.9107 37.4357 35.0128 37.4038 35.0128 37.3719C35.0128 37.3337 35.0829 37.3082 35.1722 37.3082C35.2615 37.3082 35.3316 37.2763 35.3316 37.2444C35.3316 37.2061 35.389 37.1806 35.4592 37.1806H35.5867V37.0849V36.9893H35.7334C35.8099 36.9893 35.9184 36.9319 35.9694 36.8617C36.0204 36.7916 36.1288 36.7342 36.2054 36.7342H36.352V36.6385V36.5428H36.4668C36.5306 36.5428 36.6199 36.4855 36.6709 36.4153C36.7219 36.3451 36.8176 36.2877 36.8814 36.2877C37.0089 36.2877 37.1811 36.1474 37.1811 36.039C37.1811 36.0008 37.2385 35.9689 37.315 35.9689H37.449L37.6658 35.7457C37.7806 35.6245 37.9145 35.5224 37.9656 35.5224C38.0102 35.5224 38.0867 35.465 38.1378 35.3949C38.1888 35.3247 38.2525 35.2673 38.2844 35.2673C38.361 35.2673 38.5204 35.0951 38.5204 35.0186C38.5204 34.9803 38.5778 34.9485 38.648 34.9485C38.7883 34.9485 39.0944 34.687 39.0944 34.5658C39.0944 34.5339 39.1263 34.502 39.1582 34.502C39.2347 34.502 39.5408 34.215 39.5408 34.1513C39.5408 34.1002 39.713 33.9281 39.764 33.9281C39.8278 33.9281 40.1148 33.6219 40.1148 33.5454C40.1148 33.5135 40.1467 33.4816 40.1786 33.4816C40.2551 33.4816 40.5612 33.1946 40.5612 33.1309C40.5612 33.0671 40.7398 32.9076 40.8099 32.9076C40.8482 32.9076 40.8801 32.8502 40.8801 32.7801C40.8801 32.6398 41.1416 32.3337 41.2628 32.3337C41.2946 32.3337 41.3265 32.2699 41.3265 32.187V32.0467L41.5497 31.8553C41.6709 31.7533 41.773 31.6194 41.773 31.5684C41.773 31.511 41.8304 31.4281 41.9005 31.377C41.9707 31.326 42.0281 31.2304 42.0281 31.1666C42.0281 31.039 42.1684 30.8668 42.2768 30.8668C42.315 30.8668 42.3469 30.7967 42.3469 30.7074C42.3469 30.6181 42.3788 30.548 42.4107 30.548C42.449 30.548 42.4745 30.4906 42.4745 30.4204C42.4745 30.3502 42.5064 30.2929 42.5383 30.2929C42.5765 30.2929 42.602 30.2227 42.602 30.1334V29.974H42.6977H42.7934V29.8464C42.7934 29.7763 42.8253 29.7189 42.8571 29.7189C42.8954 29.7189 42.9209 29.6487 42.9209 29.5594C42.9209 29.4701 42.9528 29.4 42.9847 29.4C43.023 29.4 43.0485 29.3298 43.0485 29.2406C43.0485 29.1513 43.0804 29.0811 43.1122 29.0811C43.1505 29.0811 43.176 29.0237 43.176 28.9536V28.826H43.2717H43.3673V28.6666C43.3673 28.5773 43.3992 28.5071 43.4311 28.5071C43.4694 28.5071 43.4949 28.4051 43.4949 28.2839C43.4949 28.1627 43.5268 28.0607 43.5587 28.0607C43.5969 28.0607 43.6224 28.0033 43.6224 27.9332V27.8056H43.7181H43.8138V27.5824C43.8138 27.4612 43.8457 27.3592 43.8775 27.3592H43.9413V27.0722V26.7852H44.0051C44.0434 26.7852 44.0689 26.6832 44.0689 26.562V26.3388H44.1645H44.2602V26.0518V25.7648H44.324H44.3878V25.3821V24.9995H44.4515H44.5153V24.5531V24.1066H44.5791H44.6429V22.9906V21.8745H38.9987H33.3546V24.7444V27.6143H35.3954H37.4362V27.7291C37.4362 27.7929 37.3788 27.8821 37.3087 27.9332C37.2385 27.9842 37.1811 28.0926 37.1811 28.1691C37.1811 28.252 37.1492 28.3158 37.111 28.3158C37.0089 28.3158 36.8622 28.4816 36.8622 28.6028C36.8622 28.724 36.7156 28.8898 36.6135 28.8898C36.5753 28.8898 36.5434 28.9217 36.5434 28.9536C36.5434 29.0428 36.25 29.3362 36.1607 29.3362C36.1288 29.3362 36.0969 29.3936 36.0969 29.4701C36.0969 29.5467 36.014 29.687 35.9056 29.7826C35.8036 29.8783 35.7143 29.9931 35.7143 30.0314C35.7143 30.0696 35.6824 30.1015 35.6441 30.1015C35.6059 30.1015 35.4911 30.1844 35.3954 30.2929C35.2997 30.3949 35.1594 30.4842 35.0829 30.4842C35.0064 30.4842 34.949 30.5161 34.949 30.5543C34.949 30.6245 34.7895 30.8031 34.7258 30.8031C34.662 30.8031 34.5025 30.9816 34.5025 31.0518C34.5025 31.09 34.4452 31.1219 34.375 31.1219C34.3048 31.1219 34.2474 31.1474 34.2474 31.1857C34.2474 31.2176 34.2156 31.2495 34.1773 31.2495C34.088 31.2495 33.9286 31.4089 33.9286 31.4982C33.9286 31.5365 33.8584 31.5684 33.7691 31.5684C33.6798 31.5684 33.6097 31.5939 33.6097 31.6321C33.6097 31.664 33.5523 31.6959 33.4821 31.6959C33.412 31.6959 33.3546 31.7214 33.3546 31.7597C33.3546 31.7916 33.2844 31.8235 33.1952 31.8235C33.1059 31.8235 33.0357 31.849 33.0357 31.8872C33.0357 31.9191 32.9783 31.951 32.9082 31.951H32.7806V32.0467V32.1423H32.6212C32.5319 32.1423 32.4617 32.1678 32.4617 32.2061C32.4617 32.238 32.3916 32.2699 32.3023 32.2699C32.213 32.2699 32.1429 32.2954 32.1429 32.3337C32.1429 32.3656 32.0855 32.3974 32.0153 32.3974H31.8878V32.4931V32.5888H31.6645C31.5434 32.5888 31.4413 32.6143 31.4413 32.6525C31.4413 32.6844 31.3393 32.7163 31.2181 32.7163C31.0969 32.7163 30.9949 32.7418 30.9949 32.7801C30.9949 32.812 30.8929 32.8439 30.7717 32.8439H30.5485V32.9395V33.0352H30.2615H29.9745V33.099V33.1627H29.5281H29.0816V33.2265V33.2903H27.5829H26.0842V33.2265V33.1627H25.7015H25.3189V33.099V33.0352H24.9681H24.6173V32.9395V32.8439H24.3941C24.273 32.8439 24.1709 32.812 24.1709 32.7801C24.1709 32.7418 24.0689 32.7163 23.9477 32.7163C23.8265 32.7163 23.7245 32.6844 23.7245 32.6525C23.7245 32.6143 23.6224 32.5888 23.5013 32.5888H23.2781V32.4931V32.3974H23.1505C23.0804 32.3974 23.023 32.3656 23.023 32.3337C23.023 32.2954 22.9528 32.2699 22.8635 32.2699C22.7742 32.2699 22.7041 32.238 22.7041 32.2061C22.7041 32.1678 22.6467 32.1423 22.5829 32.1423C22.5191 32.1423 22.449 32.0977 22.4235 32.0467C22.4043 31.9957 22.3278 31.951 22.2577 31.951C22.1875 31.951 22.1301 31.9191 22.1301 31.8872C22.1301 31.849 22.0663 31.8235 21.9834 31.8235C21.9069 31.8235 21.7985 31.7661 21.7474 31.6959C21.6964 31.6258 21.6071 31.5684 21.5434 31.5684H21.4286V31.4727C21.4286 31.4217 21.3839 31.377 21.3329 31.377C21.2819 31.377 21.2372 31.3451 21.2372 31.3133C21.2372 31.275 21.1798 31.2495 21.1097 31.2495C21.0395 31.2495 20.9821 31.2176 20.9821 31.1857C20.9821 31.1474 20.9375 31.1219 20.8865 31.1219C20.8355 31.1219 20.7908 31.0773 20.7908 31.0263V30.9306H20.6633C20.5931 30.9306 20.5357 30.8987 20.5357 30.8668C20.5357 30.8286 20.5038 30.8031 20.4656 30.8031C20.3954 30.8031 20.2168 30.6436 20.2168 30.5798C20.2168 30.5288 19.9171 30.2291 19.8661 30.2291C19.815 30.2291 19.6429 30.0569 19.6429 30.0059C19.6429 29.9548 19.4707 29.7826 19.4196 29.7826C19.3686 29.7826 19.1964 29.6105 19.1964 29.5594C19.1964 29.5084 19.0242 29.3362 18.9732 29.3362C18.8903 29.3362 18.6224 29.0173 18.6224 28.9217C18.6224 28.8005 18.4758 28.6347 18.3737 28.6347C18.3355 28.6347 18.3036 28.59 18.3036 28.539C18.3036 28.488 18.2781 28.4434 18.2398 28.4434C18.2079 28.4434 18.176 28.3987 18.176 28.3413C18.176 28.2839 18.1059 28.1691 18.0166 28.0862C17.9273 28.0033 17.8571 27.8949 17.8571 27.8375C17.8571 27.7865 17.8316 27.7418 17.7934 27.7418C17.7615 27.7418 17.7296 27.6717 17.7296 27.5824C17.7296 27.4931 17.7041 27.423 17.6658 27.423C17.6339 27.423 17.602 27.3656 17.602 27.2954C17.602 27.2252 17.5765 27.1679 17.5383 27.1679C17.5064 27.1679 17.4745 27.0977 17.4745 27.0084V26.849H17.3788H17.2832V26.7214C17.2832 26.6513 17.2577 26.5939 17.2194 26.5939C17.1875 26.5939 17.1556 26.5237 17.1556 26.4344C17.1556 26.3451 17.1301 26.275 17.0918 26.275C17.0599 26.275 17.0281 26.2048 17.0281 26.1156V25.9561H16.9324H16.8367V25.7329C16.8367 25.6117 16.8112 25.5097 16.773 25.5097C16.7411 25.5097 16.7092 25.4204 16.7092 25.3184C16.7092 25.2099 16.6837 25.127 16.6454 25.127H16.5816V24.8082V24.4893H16.486H16.3903V24.0747V23.6602H16.3265H16.2628V21.8426V20.025H16.3265H16.3903V19.6742V19.3235H16.486H16.5816V19.0046V18.6857H16.6454C16.6837 18.6857 16.7092 18.5964 16.7092 18.4944C16.7092 18.386 16.7411 18.3031 16.773 18.3031C16.8112 18.3031 16.8367 18.201 16.8367 18.0798V17.8566H16.9324H17.0281V17.6972C17.0281 17.6079 17.0599 17.5377 17.0918 17.5377C17.1301 17.5377 17.1556 17.4803 17.1556 17.4102C17.1556 17.34 17.1875 17.2826 17.2194 17.2826C17.2577 17.2826 17.2832 17.187 17.2832 17.0658V16.849L17.3788 16.8107C17.4298 16.7916 17.4745 16.7214 17.4745 16.664C17.4745 16.6002 17.5319 16.5046 17.602 16.4536C17.6722 16.4025 17.7296 16.2941 17.7296 16.2176C17.7296 16.1347 17.7615 16.0709 17.7934 16.0709C17.8316 16.0709 17.8571 16.0135 17.8571 15.9434V15.8158H17.9528C18.0038 15.8158 18.0485 15.7712 18.0485 15.7201C18.0485 15.6691 18.0804 15.6245 18.1122 15.6245C18.1505 15.6245 18.176 15.5671 18.176 15.4969C18.176 15.4268 18.2079 15.3694 18.2398 15.3694C18.2781 15.3694 18.3036 15.3247 18.3036 15.2737C18.3036 15.2227 18.3355 15.1781 18.3737 15.1781C18.4758 15.1781 18.6224 15.0122 18.6224 14.8911C18.6224 14.7954 18.8903 14.4765 18.9732 14.4765C19.0242 14.4765 19.1964 14.3043 19.1964 14.2533C19.1964 14.2023 19.3686 14.0301 19.4196 14.0301C19.4834 14.0301 19.6046 13.8898 19.7003 13.6985C19.7513 13.6028 19.8469 13.5008 19.9235 13.4816C20.0574 13.437 20.2168 13.3031 20.2168 13.2329C20.2168 13.1691 20.3954 13.0097 20.4656 13.0097C20.5038 13.0097 20.5357 12.9778 20.5357 12.9459C20.5357 12.9076 20.5931 12.8821 20.6633 12.8821H20.7908V12.7865C20.7908 12.7355 20.8291 12.6908 20.8737 12.6908C20.9184 12.6908 20.9949 12.6334 21.0459 12.5633C21.0969 12.4931 21.2054 12.4357 21.2819 12.4357C21.3648 12.4357 21.4286 12.4038 21.4286 12.3656C21.4286 12.2635 21.5944 12.1168 21.7092 12.1168C21.7666 12.1168 21.8112 12.0849 21.8112 12.0531C21.8112 12.0148 21.8686 11.9893 21.9452 11.9893C22.0855 11.9893 22.2577 11.849 22.2577 11.7406C22.2577 11.7023 22.3278 11.6704 22.4171 11.6704C22.5064 11.6704 22.5765 11.6385 22.5765 11.6066C22.5765 11.5684 22.6786 11.5428 22.7997 11.5428C22.9209 11.5428 23.023 11.511 23.023 11.4791C23.023 11.4408 23.0804 11.4153 23.1505 11.4153H23.2781V11.3196V11.224H23.4375C23.5268 11.224 23.5969 11.1921 23.5969 11.1602V11.0964H23.8839H24.1709V11.0326C24.1709 10.9944 24.273 10.9689 24.3941 10.9689C24.5153 10.9689 24.6173 10.937 24.6173 10.9051V10.8413H24.9043H25.1913V10.7457V10.65H25.6378H26.0842V10.5862V10.5224H26.8559H27.6212L27.7168 10.4332C27.7679 10.3821 27.8061 10.312 27.8061 10.2737C27.8061 10.2355 27.838 10.2036 27.8699 10.2036C27.9592 10.2036 28.2525 9.9102 28.2525 9.82091C28.2525 9.78902 28.2844 9.75714 28.3163 9.75714C28.4056 9.75714 29.273 8.88979 29.273 8.8005C29.273 8.76862 29.3048 8.73673 29.3431 8.73673C29.3814 8.73673 29.4962 8.64744 29.5918 8.5454C29.6875 8.43698 29.8023 8.35408 29.8406 8.35408C29.8788 8.35408 29.9107 8.32219 29.9107 8.2903C29.9107 8.25203 30.0957 8.04157 30.3253 7.81198C30.5548 7.58877 30.7398 7.37831 30.7398 7.34004C30.7398 7.30178 30.7717 7.26989 30.8036 7.26989C30.8929 7.26989 31.7602 6.40254 31.7602 6.31326C31.7602 6.28137 31.7921 6.24948 31.824 6.24948C31.9133 6.24948 32.2066 5.95612 32.2066 5.86683C32.2066 5.83494 32.2385 5.80305 32.2768 5.80305C32.3661 5.80305 32.5255 5.64362 32.5255 5.55433C32.5255 5.51607 32.4554 5.48418 32.3661 5.48418C32.2768 5.48418 32.2066 5.45229 32.2066 5.4204V5.35663H31.9196H31.6327V5.26096V5.1653H31.2819H30.9311V5.10153V5.03775H30.5485H30.1658V4.97397V4.9102H29.5281H28.8903V4.84642V4.78265H27.6786H26.4668V4.84642Z"
        fill="#0F172A"></path>
</svg>