<svg width="23" height="23" viewBox="0 0 23 23" fill="none" xmlns="http://www.w3.org/2000/svg">
  <path
    d="M11.44 22.8C9.5734 22.8 7.9334 22.48 6.52 21.84C5.1067 21.2 3.9067 20.36 2.92 19.32C1.96 18.2533 1.2267 17.0667 0.720001 15.76C0.240001 14.4533 0 13.12 0 11.76V11.04C0 9.68 0.253402 8.3467 0.760002 7.04C1.2667 5.7067 2.0134 4.52 3 3.48C3.9867 2.4133 5.1867 1.5733 6.6 0.959999C8.0134 0.319999 9.6267 0 11.44 0C13.2534 0 14.8667 0.319999 16.28 0.959999C17.6934 1.5733 18.8934 2.4133 19.88 3.48C20.8667 4.52 21.6134 5.7067 22.12 7.04C22.6267 8.3467 22.8796 9.68 22.8796 11.04V11.76C22.8796 13.12 22.6267 14.4533 22.12 15.76C21.64 17.0667 20.9067 18.2533 19.92 19.32C18.96 20.36 17.7734 21.2 16.36 21.84C14.9467 22.48 13.3067 22.8 11.44 22.8ZM11.44 19.36C13.04 19.36 14.4 19.0133 15.52 18.32C16.6667 17.6 17.5334 16.64 18.12 15.44C18.7334 14.24 19.04 12.8933 19.04 11.4C19.04 9.88 18.7334 8.52 18.12 7.32C17.5067 6.12 16.6267 5.1733 15.48 4.48C14.36 3.7867 13.0134 3.44 11.44 3.44C9.8934 3.44 8.5467 3.7867 7.4 4.48C6.2534 5.1733 5.3734 6.12 4.76 7.32C4.1467 8.52 3.84 9.88 3.84 11.4C3.84 12.8933 4.1334 14.24 4.72 15.44C5.3334 16.64 6.2 17.6 7.32 18.32C8.4667 19.0133 9.84 19.36 11.44 19.36Z"
    fill="currentColor"
  />
  <path
    d="M11.4404 12.3925L7.35289 11.7738C7.14039 11.7363 7.00599 11.6144 6.94969 11.4081C6.89349 11.2019 6.95289 11.03 7.12789 10.8925L14.0841 4.89247C14.1091 4.86747 14.1341 4.85187 14.1591 4.84557C14.1841 4.83937 14.2216 4.83627 14.2716 4.83627C14.3466 4.83627 14.4091 4.87057 14.4591 4.93937C14.5091 5.00807 14.5154 5.07997 14.4779 5.15497L11.7966 9.78627L15.9216 10.405C16.1341 10.4425 16.2716 10.5613 16.3341 10.7613C16.3966 10.9613 16.3404 11.13 16.1654 11.2675L9.20909 17.2863C9.18409 17.3113 9.15909 17.3238 9.13409 17.3238H9.02159C8.94659 17.3238 8.89039 17.2894 8.85289 17.2206C8.81539 17.1519 8.80909 17.0863 8.83409 17.0238L11.4404 12.3925Z"
    fill="currentColor"
  />
</svg>