<svg width="128" height="128" viewBox="0 0 128 128" fill="none" xmlns="http://www.w3.org/2000/svg">
<rect width="128" height="128" rx="15" fill="#262626"/>
<path d="M64.0002 95.667C63.8622 94.9325 63.7248 94.2177 63.5877 93.5219C63.4506 92.8259 63.3138 92.1488 63.1763 91.4901C63.039 90.8312 62.901 90.1906 62.7621 89.5678C62.623 88.9449 62.4829 88.3395 62.341 87.7511C62.1991 87.1628 62.0554 86.5914 61.9092 86.0364C61.7631 85.4815 61.6146 84.9428 61.463 84.4197C61.3113 83.8968 61.1567 83.3895 60.9983 82.8975C60.8399 82.4052 60.6777 81.9283 60.5112 81.4657C60.3447 81.0031 60.1737 80.5548 59.9979 80.1205C59.822 79.6861 59.641 79.2655 59.4545 78.8581C59.2678 78.4508 59.0756 78.0564 58.8771 77.6748C58.6786 77.2931 58.4737 76.9239 58.2617 76.5666C58.0499 76.2093 57.831 75.864 57.6045 75.5298C57.378 75.1958 57.1439 74.873 56.9017 74.5608C56.6593 74.2486 56.4087 73.9471 56.1493 73.6555C55.8897 73.3639 55.6213 73.0824 55.3433 72.8102C55.0653 72.538 54.7778 72.2752 54.48 72.021C54.1822 71.7668 53.8743 71.5215 53.5555 71.2843C53.2366 71.0469 52.907 70.8179 52.5658 70.5961C52.2247 70.3743 51.8718 70.16 51.5071 69.9526C51.1423 69.7452 50.7652 69.5446 50.3754 69.35C49.9856 69.1556 49.5829 68.9673 49.1669 68.7847C48.7509 68.6019 48.3212 68.4248 47.8776 68.2526C47.434 68.0804 46.9763 67.913 46.5038 67.75C46.0314 67.5869 45.5441 67.4282 45.0416 67.273C44.5389 67.1179 44.0209 66.9663 43.4867 66.818C42.9527 66.6695 42.4026 66.5242 41.8357 66.3811C41.2687 66.2379 40.6854 66.0973 40.0844 65.9583C39.4835 65.8194 38.8653 65.6821 38.2292 65.546C37.5929 65.4098 36.9387 65.2748 36.266 65.1404C35.593 65.0059 34.9015 64.8718 34.1909 64.7375C33.4801 64.6033 32.7501 64.469 32 64.3337C32.7501 64.1985 33.4801 64.0641 34.1909 63.9298C34.9017 63.7955 35.5932 63.6614 36.266 63.527C36.9387 63.3925 37.5931 63.2574 38.2292 63.1214C38.8653 62.9852 39.4835 62.848 40.0844 62.709C40.6854 62.5701 41.2687 62.4294 41.8357 62.2863C42.4026 62.1432 42.9526 61.9978 43.4867 61.8493C44.0208 61.7008 44.5389 61.5494 45.0416 61.3943C45.5443 61.2393 46.0314 61.0804 46.5038 60.9173C46.9763 60.7543 47.434 60.5869 47.8776 60.4147C48.3212 60.2425 48.7509 60.0653 49.1669 59.8826C49.5829 59.6999 49.9856 59.5117 50.3754 59.3173C50.7652 59.1229 51.1423 58.9223 51.5071 58.7147C51.872 58.5073 52.2247 58.293 52.5658 58.0712C52.907 57.8495 53.2366 57.6202 53.5555 57.383C53.8743 57.1458 54.1822 56.9003 54.48 56.6463C54.7778 56.3922 55.0653 56.1293 55.3433 55.8571C55.6213 55.585 55.8897 55.3034 56.1493 55.0118C56.4089 54.7202 56.6594 54.4188 56.9017 54.1065C57.1439 53.7943 57.378 53.4715 57.6045 53.1375C57.831 52.8035 58.0499 52.458 58.2617 52.1009C58.4735 51.7436 58.6784 51.3744 58.8771 50.9927C59.0756 50.611 59.268 50.2169 59.4545 49.8094C59.6411 49.402 59.822 48.9814 59.9979 48.547C60.1737 48.1127 60.3447 47.6644 60.5112 47.2018C60.6777 46.7392 60.8398 46.2621 60.9983 45.77C61.1567 45.2778 61.3115 44.7707 61.463 44.2476C61.6146 43.7247 61.7631 43.186 61.9092 42.6309C62.0554 42.076 62.1991 41.5046 62.341 40.9162C62.4829 40.3278 62.623 39.7224 62.7621 39.0996C62.9012 38.4765 63.039 37.836 63.1763 37.1773C63.3136 36.5184 63.4506 35.8413 63.5877 35.1454C63.7248 34.4495 63.862 33.7346 64.0002 33.0003C64.1382 33.7348 64.2755 34.4496 64.4126 35.1454C64.5498 35.8414 64.6867 36.5185 64.824 37.1773C64.9615 37.836 65.0994 38.4767 65.2383 39.0996C65.3773 39.7224 65.5175 40.3278 65.6594 40.9162C65.8013 41.5046 65.945 42.0758 66.0911 42.6309C66.2373 43.1859 66.3858 43.7245 66.5374 44.2476C66.689 44.7705 66.8437 45.2778 67.0021 45.77C67.1604 46.2622 67.3227 46.7392 67.4892 47.2018C67.6557 47.6644 67.8266 48.1127 68.0025 48.547C68.1784 48.9814 68.3594 49.402 68.5459 49.8094C68.7326 50.2167 68.9247 50.611 69.1233 50.9927C69.3218 51.3744 69.5267 51.7436 69.7387 52.1009C69.9505 52.4582 70.1694 52.8035 70.3959 53.1375C70.6224 53.4715 70.8565 53.7943 71.0987 54.1065C71.3411 54.4188 71.5917 54.7202 71.8511 55.0118C72.1106 55.3034 72.3791 55.585 72.657 55.8571C72.935 56.1293 73.2226 56.3922 73.5204 56.6463C73.8182 56.9005 74.126 57.1458 74.4449 57.383C74.7638 57.6204 75.0934 57.8495 75.4346 58.0712C75.7757 58.293 76.1285 58.5071 76.4932 58.7147C76.8581 58.9221 77.2352 59.1227 77.625 59.3173C78.0148 59.5117 78.4173 59.7 78.8335 59.8826C79.2495 60.0654 79.6791 60.2425 80.1227 60.4147C80.5663 60.5869 81.0241 60.7543 81.4965 60.9173C81.969 61.0804 82.4563 61.2393 82.9588 61.3943C83.4613 61.5494 83.9794 61.701 84.5134 61.8493C85.0475 61.9978 85.5976 62.1432 86.1645 62.2863C86.7314 62.4294 87.3148 62.5701 87.9157 62.709C88.5166 62.848 89.1347 62.9852 89.771 63.1214C90.4071 63.2576 91.0615 63.3925 91.7342 63.527C92.407 63.6616 93.0985 63.7955 93.8092 63.9298C94.52 64.0641 95.2501 64.1985 96 64.3337C95.2499 64.4688 94.5199 64.6033 93.8092 64.7375C93.0985 64.8718 92.407 65.0059 91.7342 65.1404C91.0615 65.2748 90.4071 65.4099 89.771 65.546C89.1347 65.6821 88.5166 65.8192 87.9157 65.9583C87.3148 66.0973 86.7314 66.2379 86.1645 66.3811C85.5976 66.5242 85.0476 66.6695 84.5134 66.818C83.9794 66.9665 83.4613 67.1179 82.9588 67.273C82.4561 67.4281 81.969 67.5869 81.4965 67.75C81.0241 67.913 80.5663 68.0804 80.1227 68.2526C79.6791 68.4248 79.2495 68.6021 78.8335 68.7847C78.4175 68.9675 78.0148 69.1556 77.625 69.35C77.2352 69.5444 76.8581 69.7451 76.4932 69.9526C76.1284 70.16 75.7757 70.3743 75.4346 70.5961C75.0934 70.8179 74.7638 71.0471 74.4449 71.2843C74.126 71.5216 73.8182 71.767 73.5204 72.021C73.2226 72.2752 72.935 72.538 72.657 72.8102C72.3791 73.0824 72.1106 73.3639 71.8511 73.6555C71.5915 73.9471 71.3409 74.2486 71.0987 74.5608C70.8563 74.873 70.6224 75.1958 70.3959 75.5298C70.1694 75.8639 69.9505 76.2093 69.7387 76.5666C69.5269 76.9239 69.322 77.2931 69.1233 77.6748C68.9247 78.0564 68.7324 78.4506 68.5459 78.8581C68.3592 79.2656 68.1784 79.6861 68.0025 80.1205C67.8266 80.5548 67.6557 81.0031 67.4892 81.4657C67.3227 81.9283 67.1606 82.4054 67.0021 82.8975C66.8437 83.3897 66.6889 83.8968 66.5374 84.4197C66.3858 84.9426 66.2373 85.4813 66.0911 86.0364C65.945 86.5914 65.8013 87.1628 65.6594 87.7511C65.5175 88.3395 65.3773 88.9447 65.2383 89.5678C65.0992 90.1906 64.9613 90.8313 64.824 91.4901C64.6867 92.1488 64.5498 92.8259 64.4126 93.5219C64.2755 94.2179 64.1382 94.9327 64.0002 95.667Z" fill="#F2F2F2"/>
</svg>
